<svg width="702" height="657" viewBox="0 0 702 657" fill="none" xmlns="http://www.w3.org/2000/svg">
<path d="M108.717 272.691L102.88 272.173C102.387 270.343 101.677 268.582 100.766 266.928L106.305 260.189L98.2047 251.894M106.305 297.407L100.766 290.668C101.677 289.009 102.387 287.242 102.88 285.408L111.457 284.66V272.935M91.5934 300.029L98.1601 305.686L103.67 300.045M57.1369 285.408C57.637 287.24 58.3468 289.006 59.2514 290.668L53.727 297.407L61.8125 305.686L68.3941 300.029C70.0173 300.956 71.7416 301.682 73.5313 302.195L74.2609 310.977H85.7117L86.4562 302.195M57.0774 256.804L53.727 260.25L59.2514 266.989C58.3469 268.646 57.6371 270.406 57.1369 272.234L48.56 272.996V284.721L53.727 285.24M91.5934 257.566C89.9689 256.643 88.2449 255.916 86.4562 255.401L85.7117 246.619H74.2609L73.5313 255.401C71.7416 255.913 70.0173 256.64 68.3941 257.566L61.8125 251.894L59.2365 254.532M70.851 268.895C72.4114 267.384 74.3055 266.283 76.3718 265.684C78.438 265.085 80.6151 265.007 82.7171 265.456C84.8192 265.906 86.7839 266.869 88.4436 268.264C90.1033 269.66 91.4088 271.445 92.2486 273.469M75.3926 291.583C72.8398 290.616 70.6377 288.872 69.0828 286.585C67.528 284.297 66.6952 281.577 66.6966 278.79M93.2909 278.79C93.2909 282.401 91.8899 285.865 89.3962 288.418C86.9025 290.971 83.5204 292.406 79.9937 292.406" stroke="#263238" stroke-linecap="round" stroke-linejoin="round"/>
<path d="M478.341 35.8401L470.545 35.1474C469.886 32.702 468.938 30.3483 467.722 28.1386L475.119 19.1331L464.301 8.0495M475.119 68.8669L467.722 59.8614C468.938 57.6445 469.886 55.2841 470.545 52.8322L482 51.8339V36.1661M455.472 72.3712L464.241 79.9301L471.599 72.3916M409.455 52.8322C410.122 55.281 411.07 57.6404 412.278 59.8614L404.901 68.8669L415.699 79.9301L424.489 72.3712C426.656 73.609 428.959 74.5801 431.349 75.2644L432.324 87H447.616L448.611 75.2644M409.375 14.61L404.901 19.2146L412.278 28.2201C411.07 30.4339 410.123 32.7866 409.455 35.2288L398 36.2476V51.9154L404.901 52.6081M455.472 15.6287C453.302 14.3946 451 13.4236 448.611 12.7356L447.616 1H432.324L431.349 12.7356C428.959 13.4199 426.656 14.391 424.489 15.6287L415.699 8.0495L412.259 11.5742M427.77 30.7669C429.854 28.7482 432.383 27.2761 435.143 26.476C437.902 25.6759 440.81 25.5716 443.617 26.1721C446.425 26.7726 449.049 28.0599 451.265 29.9243C453.482 31.7888 455.225 34.1749 456.347 36.8792M433.835 61.0839C430.426 59.7926 427.485 57.4617 425.408 54.4052C423.332 51.3488 422.22 47.7138 422.222 43.9898M457.739 43.9898C457.739 48.8152 455.868 53.443 452.537 56.8551C449.207 60.2672 444.69 62.1841 439.98 62.1841" stroke="#263238" stroke-linecap="round" stroke-linejoin="round"/>
<path d="M625.415 119.886L616.154 119.063C615.361 116.155 614.231 113.355 612.788 110.722L621.574 100.049L608.723 86.8912M621.574 159.101L612.788 148.428C614.231 145.796 615.361 142.996 616.154 140.088L629.749 138.884V120.267M598.3 163.248L608.723 172.244L617.464 163.294M581.161 180.569H588.889L590.066 166.649M543.518 94.5758L538.187 100.034L546.973 110.707C545.504 113.343 544.345 116.148 543.518 119.063L529.923 120.267M598.196 95.8718C595.615 94.4035 592.877 93.2471 590.036 92.4259L588.859 78.5054H570.738L569.561 92.4259C566.714 93.2422 563.97 94.3987 561.387 95.8718L550.963 86.876L546.883 91.0537M565.303 113.924C567.77 111.517 570.77 109.758 574.046 108.797C577.323 107.837 580.777 107.704 584.115 108.41C587.452 109.116 590.573 110.64 593.209 112.851C595.846 115.062 597.919 117.894 599.253 121.106M600.921 129.507C600.921 135.238 598.698 140.735 594.742 144.789C590.785 148.843 585.418 151.123 579.821 151.127" stroke="#263238" stroke-linecap="round" stroke-linejoin="round"/>
<g opacity="0.3">
<path d="M548.298 555.647C547.837 554.739 547.205 553.933 546.438 553.276C545.672 552.619 544.785 552.124 543.831 551.82L450.021 521.463C449.037 521.15 448.001 521.046 446.977 521.159C445.952 521.272 444.961 521.598 444.065 522.119L439.598 520.701C439.696 520.125 439.577 519.532 439.266 519.041C438.955 518.55 438.475 518.198 437.92 518.055C437.366 517.912 436.78 517.99 436.279 518.271C435.778 518.552 435.4 519.017 435.22 519.573L434.699 521.219L356.703 495.97C356.58 495.94 356.453 495.94 356.33 495.97L351.327 497.007C351.196 497.032 351.073 497.093 350.973 497.185C350.873 497.276 350.8 497.394 350.761 497.525C350.723 497.654 350.719 497.79 350.747 497.921C350.776 498.052 350.837 498.173 350.925 498.273L354.439 502.069C354.53 502.163 354.643 502.231 354.767 502.267L432.763 527.516L432.257 529.163C432.166 529.453 432.132 529.759 432.158 530.063C432.184 530.366 432.268 530.662 432.406 530.932C432.683 531.477 433.159 531.888 433.731 532.075C434.014 532.168 434.313 532.202 434.609 532.176C434.906 532.15 435.194 532.064 435.458 531.923C435.908 531.693 436.266 531.31 436.471 530.84L440.938 532.258C441.381 533.225 442.014 534.086 442.798 534.79C443.582 535.493 444.5 536.022 445.494 536.344L539.304 566.701C540.258 567.011 541.263 567.125 542.26 567.037C543.257 566.948 544.228 566.659 545.116 566.186C546.004 565.713 546.792 565.065 547.435 564.28C548.078 563.494 548.564 562.587 548.864 561.609C549.16 560.626 549.262 559.593 549.165 558.57C549.068 557.546 548.773 556.553 548.298 555.647Z" fill="black"/>
<path d="M239.887 538.235L235.167 536.71C235.202 536.529 235.171 536.341 235.081 536.181C234.99 536.022 234.846 535.901 234.676 535.841L228.332 533.829C228.143 533.771 227.939 533.791 227.763 533.885C227.588 533.979 227.456 534.14 227.394 534.332L225.682 540.019C225.626 540.211 225.646 540.418 225.738 540.595C225.83 540.772 225.986 540.905 226.173 540.964L232.516 542.977H232.74C232.883 542.975 233.022 542.93 233.14 542.849C233.259 542.768 233.353 542.654 233.41 542.52L238.13 544.044C238.667 544.22 239.115 544.604 239.376 545.115C239.638 545.626 239.693 546.222 239.53 546.774L226.128 590.914C226.088 591.056 226.088 591.208 226.127 591.351C226.167 591.493 226.244 591.622 226.352 591.722L225.012 596.174C224.939 596.36 224.939 596.567 225.012 596.753C225.107 596.925 225.261 597.056 225.444 597.119L228.868 598.202C228.937 598.218 229.008 598.218 229.077 598.202C229.236 598.203 229.391 598.152 229.52 598.056C229.649 597.959 229.744 597.824 229.792 597.668L231.147 593.201C231.229 593.223 231.317 593.223 231.4 593.201C231.486 593.157 231.563 593.095 231.625 593.019C231.686 592.943 231.731 592.854 231.757 592.759L245.158 548.542C245.783 546.446 245.573 544.181 244.575 542.242C243.577 540.303 241.87 538.846 239.828 538.189L239.887 538.235Z" fill="black"/>
<path d="M197.286 571.138C197.391 571.005 197.444 570.837 197.435 570.665C197.435 570.564 197.414 570.464 197.373 570.372C197.331 570.28 197.271 570.198 197.196 570.132L192.268 565.558C192.196 565.489 192.111 565.437 192.019 565.403C191.927 565.369 191.829 565.354 191.732 565.359C191.532 565.375 191.346 565.468 191.21 565.619L187.324 570.025C187.254 570.096 187.199 570.18 187.161 570.273C187.123 570.366 187.104 570.466 187.104 570.566C187.104 570.667 187.123 570.767 187.161 570.86C187.199 570.952 187.254 571.037 187.324 571.108L192.238 575.682C192.38 575.805 192.558 575.875 192.744 575.88C192.917 575.876 193.082 575.805 193.206 575.682L196.869 579.067C197.289 579.46 197.541 580.008 197.569 580.591C197.589 581.154 197.391 581.702 197.018 582.116L166.775 616.407C166.678 616.516 166.615 616.653 166.593 616.8C166.572 616.946 166.594 617.096 166.656 617.23L163.678 620.691C163.608 620.762 163.553 620.846 163.515 620.939C163.477 621.032 163.458 621.132 163.458 621.232C163.458 621.333 163.477 621.433 163.515 621.525C163.553 621.618 163.608 621.703 163.678 621.774L166.329 624.213C166.463 624.338 166.638 624.409 166.82 624.411C166.926 624.413 167.031 624.392 167.128 624.35C167.225 624.308 167.313 624.246 167.386 624.167L170.364 620.706C170.443 620.721 170.523 620.721 170.602 620.706C170.797 620.69 170.978 620.597 171.108 620.447L201.351 586.156C202.785 584.525 203.529 582.378 203.42 580.186C203.311 577.994 202.358 575.936 200.77 574.462L197.286 571.138Z" fill="black"/>
<path d="M445.911 587.972L432.674 591.601L428.728 587.545L430.217 582.025L443.454 578.412C443.572 578.376 443.68 578.312 443.768 578.224C443.856 578.137 443.922 578.028 443.961 577.909C444.003 577.792 444.015 577.667 443.997 577.544C443.979 577.422 443.93 577.306 443.856 577.207C442.217 575.018 440.039 573.313 437.545 572.266C435.052 571.22 432.332 570.869 429.663 571.251C426.994 571.632 424.472 572.731 422.353 574.437C420.235 576.142 418.596 578.392 417.605 580.958L291.036 615.615C289.029 614.152 286.687 613.245 284.237 612.983C281.787 612.721 279.313 613.113 277.054 614.119C274.796 615.126 272.83 616.714 271.348 618.728C269.866 620.743 268.918 623.116 268.596 625.617C268.58 625.74 268.594 625.866 268.636 625.983C268.679 626.1 268.749 626.204 268.84 626.287C268.931 626.37 269.041 626.429 269.159 626.458C269.278 626.487 269.401 626.486 269.519 626.455L281.848 623.07L285.497 626.806L284.156 631.899L271.827 635.283C271.709 635.317 271.601 635.38 271.512 635.466C271.424 635.553 271.357 635.66 271.319 635.78C271.281 635.899 271.272 636.026 271.293 636.149C271.314 636.273 271.365 636.389 271.44 636.488C272.771 638.262 274.482 639.699 276.442 640.688C278.402 641.676 280.557 642.19 282.742 642.19C283.998 642.193 285.249 642.029 286.464 641.702C288.497 641.144 290.384 640.133 291.99 638.742C293.596 637.35 294.882 635.612 295.756 633.652L422.235 598.995C422.813 599.462 423.42 599.89 424.052 600.276C426.225 601.558 428.672 602.272 431.178 602.356C433.684 602.441 436.171 601.892 438.421 600.759C440.671 599.626 442.614 597.943 444.079 595.859C445.543 593.776 446.485 591.355 446.82 588.81C446.835 588.687 446.821 588.562 446.78 588.445C446.739 588.329 446.67 588.224 446.581 588.139C446.49 588.06 446.382 588.004 446.265 587.975C446.149 587.946 446.028 587.945 445.911 587.972Z" fill="black"/>
</g>
<path d="M458.404 526.587L456.915 531.42L355.02 498.425L351.506 494.644L356.509 493.607L458.404 526.587Z" fill="white" stroke="#263238" stroke-linecap="round" stroke-linejoin="round"/>
<path d="M444.139 519.862L438.719 518.109L438.853 517.651C438.976 517.257 438.94 516.829 438.754 516.462C438.569 516.094 438.248 515.817 437.863 515.692C437.478 515.567 437.06 515.603 436.701 515.793C436.342 515.983 436.072 516.312 435.95 516.706L432.971 526.281C432.849 526.685 432.888 527.123 433.081 527.498C433.274 527.872 433.604 528.153 433.999 528.278C434.394 528.404 434.821 528.363 435.187 528.166C435.553 527.969 435.827 527.631 435.95 527.226L436.084 526.769L441.504 528.522C441.886 529.463 442.463 530.308 443.196 530.998C443.929 531.688 444.799 532.206 445.747 532.517L539.557 562.859C541.295 563.421 543.179 563.253 544.796 562.392C546.413 561.532 547.63 560.049 548.179 558.269C548.728 556.49 548.564 554.56 547.723 552.905C546.883 551.249 545.434 550.003 543.697 549.441L449.887 519.084C448.932 518.777 447.922 518.687 446.929 518.821C445.936 518.956 444.984 519.311 444.139 519.862Z" fill="#E56262" stroke="#263238" stroke-linecap="round" stroke-linejoin="round"/>
<path d="M444.139 519.862L442.233 526.037" stroke="#263238" stroke-linecap="round" stroke-linejoin="round"/>
<path d="M436.039 526.77L437.766 521.189" stroke="#263238" stroke-linecap="round" stroke-linejoin="round"/>
<path d="M227.519 587.662L225.794 593.372L229.208 594.454L230.933 588.744L227.519 587.662Z" fill="#999999" stroke="#263238" stroke-linecap="round" stroke-linejoin="round"/>
<path d="M231.176 589.466L226.903 588.109L240.304 543.893C240.527 543.146 240.452 542.34 240.094 541.651C239.737 540.962 239.127 540.447 238.398 540.218L228.809 537.169L230.134 532.808L239.723 535.857C240.645 536.149 241.5 536.625 242.242 537.256C242.984 537.886 243.597 538.661 244.046 539.534C244.496 540.408 244.773 541.364 244.861 542.347C244.95 543.33 244.849 544.322 244.563 545.265L231.176 589.466Z" fill="white" stroke="#263238" stroke-linecap="round" stroke-linejoin="round"/>
<path d="M228.102 531.563L226.386 537.243L232.73 539.253L234.447 533.572L228.102 531.563Z" fill="#999999" stroke="#263238" stroke-linecap="round" stroke-linejoin="round"/>
<path d="M168.148 613.74L164.236 618.176L166.888 620.629L170.8 616.192L168.148 613.74Z" fill="#999999" stroke="#263238" stroke-linecap="round" stroke-linejoin="round"/>
<path d="M170.736 616.956L167.415 613.906L197.658 579.6C197.911 579.315 198.107 578.98 198.234 578.617C198.36 578.253 198.416 577.868 198.396 577.482C198.377 577.097 198.283 576.719 198.121 576.371C197.958 576.023 197.73 575.711 197.449 575.453L190.004 568.562L192.982 565.161L200.428 572.053C201.152 572.715 201.741 573.517 202.16 574.414C202.579 575.31 202.821 576.282 202.871 577.275C202.921 578.268 202.778 579.26 202.45 580.196C202.123 581.132 201.618 581.992 200.964 582.726L170.736 616.956Z" fill="white" stroke="#263238" stroke-linecap="round" stroke-linejoin="round"/>
<path d="M191.765 563.102L187.873 567.515L192.802 572.072L196.694 567.659L191.765 563.102Z" fill="#999999" stroke="#263238" stroke-linecap="round" stroke-linejoin="round"/>
<path d="M422.868 577.273L285.914 614.796L290.24 631.351L427.194 593.828L422.868 577.273Z" fill="#E56262" stroke="#263238" stroke-linecap="round" stroke-linejoin="round"/>
<path d="M279.272 611.101C276.687 611.809 274.365 613.283 272.597 615.34C270.83 617.397 269.697 619.943 269.34 622.659L282.087 619.167L286.33 623.528L284.841 629.474L272.095 632.966C273.591 634.956 275.586 636.494 277.869 637.414C280.151 638.335 282.634 638.604 285.054 638.192C287.474 637.781 289.739 636.705 291.608 635.078C293.477 633.452 294.88 631.337 295.668 628.958C296.455 626.58 296.597 624.027 296.079 621.572C295.56 619.117 294.401 616.852 292.724 615.019C291.047 613.186 288.916 611.854 286.557 611.164C284.199 610.474 281.701 610.452 279.332 611.101H279.272Z" fill="#E56262" stroke="#263238" stroke-linecap="round" stroke-linejoin="round"/>
<path d="M435.458 598.049C438.229 597.29 440.719 595.708 442.614 593.502C444.509 591.296 445.723 588.565 446.105 585.654L432.45 589.389L427.909 584.724L429.576 578.365L443.216 574.615C441.613 572.483 439.475 570.838 437.03 569.853C434.585 568.868 431.925 568.581 429.333 569.022C426.741 569.463 424.315 570.616 422.313 572.358C420.311 574.1 418.808 576.366 417.965 578.914C417.121 581.462 416.969 584.196 417.524 586.826C418.079 589.455 419.32 591.881 421.115 593.846C422.911 595.81 425.193 597.238 427.719 597.978C430.245 598.719 432.92 598.743 435.458 598.049Z" fill="#E56262" stroke="#263238" stroke-linecap="round" stroke-linejoin="round"/>
<path d="M403.295 594.97L313.505 619.579C313.086 619.696 312.648 619.727 312.217 619.67C311.785 619.613 311.369 619.469 310.993 619.247C310.616 619.024 310.286 618.727 310.023 618.374C309.759 618.02 309.566 617.616 309.455 617.185C309.232 616.32 309.353 615.399 309.791 614.625C310.229 613.851 310.949 613.286 311.793 613.053L401.597 588.444C402.442 588.216 403.341 588.34 404.097 588.789C404.854 589.237 405.406 589.974 405.633 590.838C405.855 591.704 405.735 592.624 405.297 593.398C404.858 594.173 404.139 594.738 403.295 594.97Z" fill="white" stroke="#263238" stroke-linecap="round" stroke-linejoin="round"/>
<path d="M483.257 127.313H503.627C504.022 127.313 504.4 127.473 504.68 127.759C504.959 128.045 505.116 128.433 505.116 128.837V137.635H481.797V128.822C481.801 128.426 481.956 128.046 482.228 127.765C482.5 127.483 482.869 127.321 483.257 127.313Z" fill="#BFBFBF" stroke="#263238" stroke-linecap="round" stroke-linejoin="round"/>
<path d="M510.997 127.313H531.367C531.762 127.313 532.141 127.473 532.42 127.759C532.7 128.045 532.857 128.433 532.857 128.837V137.635H509.523V128.822C509.527 128.423 509.684 128.041 509.959 127.759C510.235 127.477 510.608 127.317 510.997 127.313Z" fill="#BFBFBF" stroke="#263238" stroke-linecap="round" stroke-linejoin="round"/>
<path d="M162.546 127.313H206.994C207.389 127.313 207.768 127.473 208.047 127.759C208.327 128.045 208.483 128.433 208.483 128.837V137.635H161.072V128.822C161.076 128.423 161.233 128.041 161.508 127.759C161.784 127.477 162.157 127.317 162.546 127.313Z" fill="#BFBFBF" stroke="#263238" stroke-linecap="round" stroke-linejoin="round"/>
<path d="M575.235 436.066V161.329C575.235 143.84 561.388 129.661 544.307 129.661L150.113 129.661C133.032 129.661 119.185 143.84 119.185 161.329V436.066C119.185 453.556 133.032 467.734 150.113 467.734H544.307C561.388 467.734 575.235 453.556 575.235 436.066Z" fill="#BFBFBF" stroke="#263238" stroke-linecap="round" stroke-linejoin="round"/>
<path d="M545.32 133.213H149.13C134.517 133.213 122.67 145.344 122.67 160.307V437.102C122.67 452.066 134.517 464.196 149.13 464.196H545.32C559.933 464.196 571.78 452.066 571.78 437.102V160.307C571.78 145.344 559.933 133.213 545.32 133.213Z" fill="#4B1C5B"/>
<path d="M129.311 286.353C129.311 286.655 129.223 286.95 129.06 287.201C128.896 287.451 128.664 287.647 128.392 287.762C128.119 287.877 127.82 287.908 127.531 287.849C127.242 287.79 126.977 287.645 126.769 287.432C126.561 287.218 126.419 286.947 126.361 286.651C126.304 286.355 126.333 286.049 126.446 285.77C126.559 285.491 126.75 285.253 126.994 285.086C127.239 284.918 127.527 284.829 127.822 284.829C128.217 284.829 128.595 284.989 128.875 285.275C129.154 285.561 129.311 285.949 129.311 286.353Z" fill="white" stroke="#263238" stroke-linecap="round" stroke-linejoin="round"/>
<path d="M130.71 300.563C130.71 301.166 130.536 301.755 130.209 302.257C129.881 302.758 129.416 303.149 128.872 303.38C128.328 303.611 127.729 303.671 127.151 303.554C126.574 303.436 126.043 303.145 125.627 302.719C125.21 302.293 124.926 301.749 124.812 301.158C124.697 300.566 124.756 299.953 124.981 299.396C125.206 298.839 125.588 298.362 126.078 298.027C126.568 297.692 127.143 297.513 127.732 297.513C128.522 297.513 129.28 297.835 129.838 298.406C130.397 298.978 130.71 299.754 130.71 300.563Z" fill="white" stroke="#263238" stroke-linecap="round" stroke-linejoin="round"/>
<path d="M129.921 310.428C129.924 310.86 129.802 311.283 129.57 311.643C129.338 312.004 129.006 312.286 128.617 312.453C128.228 312.621 127.8 312.666 127.386 312.584C126.972 312.501 126.591 312.295 126.292 311.99C125.992 311.686 125.788 311.298 125.705 310.874C125.621 310.451 125.663 310.012 125.823 309.612C125.984 309.213 126.257 308.872 126.607 308.631C126.958 308.391 127.37 308.263 127.792 308.263C128.354 308.263 128.893 308.491 129.292 308.896C129.691 309.302 129.917 309.852 129.921 310.428Z" fill="white" stroke="#263238" stroke-linecap="round" stroke-linejoin="round"/>
<path d="M561.372 440.166V157.242C561.372 149.857 555.525 143.87 548.313 143.87L146.122 143.87C138.91 143.87 133.063 149.857 133.063 157.242V440.166C133.063 447.551 138.91 453.538 146.122 453.538H548.313C555.525 453.538 561.372 447.551 561.372 440.166Z" fill="white" stroke="#263238" stroke-linecap="round" stroke-linejoin="round"/>
<path opacity="0.3" d="M561.372 440.166V157.242C561.372 149.857 555.525 143.87 548.313 143.87L146.122 143.87C138.91 143.87 133.063 149.857 133.063 157.242V440.166C133.063 447.551 138.91 453.538 146.122 453.538H548.313C555.525 453.538 561.372 447.551 561.372 440.166Z" fill="#E56262"/>
<path d="M249.462 209.814H167.177C166.782 209.814 166.404 209.653 166.124 209.367C165.845 209.081 165.688 208.693 165.688 208.289C165.688 207.884 165.845 207.497 166.124 207.211C166.404 206.925 166.782 206.764 167.177 206.764H249.462C249.857 206.764 250.235 206.925 250.515 207.211C250.794 207.497 250.951 207.884 250.951 208.289C250.951 208.693 250.794 209.081 250.515 209.367C250.235 209.653 249.857 209.814 249.462 209.814Z" fill="#263238"/>
<path d="M225.354 228.125H167.177C166.782 228.125 166.404 227.964 166.124 227.678C165.845 227.392 165.688 227.005 165.688 226.6C165.688 226.196 165.845 225.808 166.124 225.522C166.404 225.236 166.782 225.076 167.177 225.076H225.354C225.749 225.076 226.128 225.236 226.407 225.522C226.686 225.808 226.843 226.196 226.843 226.6C226.843 227.005 226.686 227.392 226.407 227.678C226.128 227.964 225.749 228.125 225.354 228.125Z" fill="#263238"/>
<path d="M261.523 246.436H167.177C166.782 246.436 166.404 246.276 166.124 245.99C165.845 245.704 165.688 245.316 165.688 244.912C165.688 244.507 165.845 244.119 166.124 243.834C166.404 243.548 166.782 243.387 167.177 243.387H261.523C261.918 243.387 262.297 243.548 262.576 243.834C262.855 244.119 263.012 244.507 263.012 244.912C263.012 245.316 262.855 245.704 262.576 245.99C262.297 246.276 261.918 246.436 261.523 246.436Z" fill="white"/>
<path d="M249.462 264.748H167.177C166.782 264.748 166.404 264.588 166.124 264.302C165.845 264.016 165.688 263.628 165.688 263.223C165.688 262.819 165.845 262.431 166.124 262.145C166.404 261.859 166.782 261.699 167.177 261.699H249.462C249.857 261.699 250.235 261.859 250.515 262.145C250.794 262.431 250.951 262.819 250.951 263.223C250.951 263.628 250.794 264.016 250.515 264.302C250.235 264.588 249.857 264.748 249.462 264.748Z" fill="#263238"/>
<path d="M225.354 283.06H167.177C166.782 283.06 166.404 282.899 166.124 282.613C165.845 282.327 165.688 281.939 165.688 281.535C165.688 281.131 165.845 280.743 166.124 280.457C166.404 280.171 166.782 280.01 167.177 280.01H225.354C225.749 280.01 226.128 280.171 226.407 280.457C226.686 280.743 226.843 281.131 226.843 281.535C226.843 281.939 226.686 282.327 226.407 282.613C226.128 282.899 225.749 283.06 225.354 283.06Z" fill="white"/>
<path opacity="0.2" d="M274.418 212.161H290.589C292.036 212.161 293.21 210.959 293.21 209.477V207.068C293.21 205.586 292.036 204.385 290.589 204.385H274.418C272.971 204.385 271.797 205.586 271.797 207.068V209.477C271.797 210.959 272.971 212.161 274.418 212.161Z" fill="black"/>
<path d="M274.403 212.161H277.694C279.141 212.161 280.315 210.959 280.315 209.477V207.068C280.315 205.586 279.141 204.385 277.694 204.385H274.403C272.956 204.385 271.783 205.586 271.783 207.068V209.477C271.783 210.959 272.956 212.161 274.403 212.161Z" fill="#E56262" stroke="#263238" stroke-linecap="round" stroke-linejoin="round"/>
<path opacity="0.2" d="M290.589 222.697H274.418C272.971 222.697 271.797 223.898 271.797 225.38V227.789C271.797 229.271 272.971 230.473 274.418 230.473H290.589C292.036 230.473 293.21 229.271 293.21 227.789V225.38C293.21 223.898 292.036 222.697 290.589 222.697Z" fill="black"/>
<path d="M290.604 222.697H287.313C285.866 222.697 284.693 223.898 284.693 225.38V227.789C284.693 229.271 285.866 230.473 287.313 230.473H290.604C292.051 230.473 293.225 229.271 293.225 227.789V225.38C293.225 223.898 292.051 222.697 290.604 222.697Z" fill="#999999" stroke="#263238" stroke-linecap="round" stroke-linejoin="round"/>
<path opacity="0.2" d="M290.589 241.009H274.418C272.971 241.009 271.797 242.21 271.797 243.692V246.101C271.797 247.583 272.971 248.785 274.418 248.785H290.589C292.036 248.785 293.21 247.583 293.21 246.101V243.692C293.21 242.21 292.036 241.009 290.589 241.009Z" fill="black"/>
<path d="M290.604 241.009H287.313C285.866 241.009 284.693 242.21 284.693 243.692V246.101C284.693 247.583 285.866 248.785 287.313 248.785H290.604C292.051 248.785 293.225 247.583 293.225 246.101V243.692C293.225 242.21 292.051 241.009 290.604 241.009Z" fill="#999999" stroke="#263238" stroke-linecap="round" stroke-linejoin="round"/>
<path opacity="0.2" d="M274.418 267.081H290.589C292.036 267.081 293.21 265.88 293.21 264.398V261.989C293.21 260.507 292.036 259.305 290.589 259.305H274.418C272.971 259.305 271.797 260.507 271.797 261.989V264.398C271.797 265.88 272.971 267.081 274.418 267.081Z" fill="black"/>
<path d="M274.403 267.081H277.694C279.141 267.081 280.315 265.88 280.315 264.398V261.989C280.315 260.507 279.141 259.305 277.694 259.305H274.403C272.956 259.305 271.782 260.507 271.782 261.989V264.398C271.782 265.88 272.956 267.081 274.403 267.081Z" fill="#E56262" stroke="#263238" stroke-linecap="round" stroke-linejoin="round"/>
<path opacity="0.2" d="M290.589 277.632H274.418C272.971 277.632 271.797 278.833 271.797 280.315V282.724C271.797 284.206 272.971 285.408 274.418 285.408H290.589C292.036 285.408 293.21 284.206 293.21 282.724V280.315C293.21 278.833 292.036 277.632 290.589 277.632Z" fill="black"/>
<path d="M290.604 277.632H287.313C285.866 277.632 284.692 278.833 284.692 280.315V282.724C284.692 284.206 285.866 285.408 287.313 285.408H290.604C292.051 285.408 293.225 284.206 293.225 282.724V280.315C293.225 278.833 292.051 277.632 290.604 277.632Z" fill="#999999" stroke="#263238" stroke-linecap="round" stroke-linejoin="round"/>
<path d="M407.3 228.125H332.252C331.858 228.125 331.479 227.964 331.2 227.678C330.92 227.392 330.763 227.005 330.763 226.6C330.763 226.196 330.92 225.808 331.2 225.522C331.479 225.236 331.858 225.076 332.252 225.076H407.3C407.695 225.076 408.074 225.236 408.353 225.522C408.632 225.808 408.789 226.196 408.789 226.6C408.789 227.005 408.632 227.392 408.353 227.678C408.074 227.964 407.695 228.125 407.3 228.125Z" fill="#263238"/>
<path d="M395.254 209.814H332.252C331.858 209.814 331.479 209.653 331.2 209.367C330.92 209.081 330.763 208.693 330.763 208.289C330.763 207.884 330.92 207.497 331.2 207.211C331.479 206.925 331.858 206.764 332.252 206.764H395.254C395.649 206.764 396.028 206.925 396.307 207.211C396.586 207.497 396.743 207.884 396.743 208.289C396.743 208.693 396.586 209.081 396.307 209.367C396.028 209.653 395.649 209.814 395.254 209.814Z" fill="white"/>
<path d="M407.3 283.06H332.252C331.858 283.06 331.479 282.899 331.2 282.613C330.92 282.327 330.763 281.939 330.763 281.535C330.763 281.131 330.92 280.743 331.2 280.457C331.479 280.171 331.858 280.01 332.252 280.01H407.3C407.695 280.01 408.074 280.171 408.353 280.457C408.632 280.743 408.789 281.131 408.789 281.535C408.789 281.939 408.632 282.327 408.353 282.613C408.074 282.899 407.695 283.06 407.3 283.06Z" fill="white"/>
<path d="M383.193 264.748H332.252C331.858 264.748 331.479 264.588 331.2 264.302C330.92 264.016 330.763 263.628 330.763 263.223C330.763 262.819 330.92 262.431 331.2 262.145C331.479 261.859 331.858 261.699 332.252 261.699H383.193C383.588 261.699 383.966 261.859 384.246 262.145C384.525 262.431 384.682 262.819 384.682 263.223C384.682 263.628 384.525 264.016 384.246 264.302C383.966 264.588 383.588 264.748 383.193 264.748Z" fill="#263238"/>
<path d="M371.131 246.436H332.252C331.858 246.436 331.479 246.276 331.2 245.99C330.92 245.704 330.763 245.316 330.763 244.912C330.763 244.507 330.92 244.119 331.2 243.834C331.479 243.548 331.858 243.387 332.252 243.387H371.131C371.526 243.387 371.905 243.548 372.184 243.834C372.464 244.119 372.62 244.507 372.62 244.912C372.62 245.316 372.464 245.704 372.184 245.99C371.905 246.276 371.526 246.436 371.131 246.436Z" fill="white"/>
<path d="M434.192 205.544H428.891V210.972H434.192V205.544Z" fill="#999999" stroke="#263238" stroke-linecap="round" stroke-linejoin="round"/>
<path d="M442.069 205.544H436.768V210.972H442.069V205.544Z" fill="#999999" stroke="#263238" stroke-linecap="round" stroke-linejoin="round"/>
<path d="M449.946 205.544H444.645V210.972H449.946V205.544Z" fill="#999999" stroke="#263238" stroke-linecap="round" stroke-linejoin="round"/>
<path d="M457.838 205.544H452.537V210.972H457.838V205.544Z" fill="#999999" stroke="#263238" stroke-linecap="round" stroke-linejoin="round"/>
<path d="M465.715 205.544H460.414V210.972H465.715V205.544Z" fill="#999999" stroke="#263238" stroke-linecap="round" stroke-linejoin="round"/>
<path d="M473.592 205.544H468.292V210.972H473.592V205.544Z" fill="#999999" stroke="#263238" stroke-linecap="round" stroke-linejoin="round"/>
<path d="M481.469 205.544H476.168V210.972H481.469V205.544Z" fill="#999999" stroke="#263238" stroke-linecap="round" stroke-linejoin="round"/>
<path d="M489.361 205.544H484.06V210.972H489.361V205.544Z" fill="#999999" stroke="#263238" stroke-linecap="round" stroke-linejoin="round"/>
<path d="M497.238 205.544H491.937V210.972H497.238V205.544Z" fill="#E56262" stroke="#263238" stroke-linecap="round" stroke-linejoin="round"/>
<path d="M505.116 205.544H499.815V210.972H505.116V205.544Z" fill="#E56262" stroke="#263238" stroke-linecap="round" stroke-linejoin="round"/>
<path opacity="0.2" d="M512.993 205.544H507.692V210.972H512.993V205.544Z" fill="#263238"/>
<path opacity="0.2" d="M520.884 205.544H515.583V210.972H520.884V205.544Z" fill="#263238"/>
<path opacity="0.2" d="M528.762 205.544H523.461V210.972H528.762V205.544Z" fill="#263238"/>
<path d="M434.192 223.856H428.891V229.284H434.192V223.856Z" fill="#999999" stroke="#263238" stroke-linecap="round" stroke-linejoin="round"/>
<path d="M442.069 223.856H436.768V229.284H442.069V223.856Z" fill="#999999" stroke="#263238" stroke-linecap="round" stroke-linejoin="round"/>
<path d="M449.946 223.856H444.645V229.284H449.946V223.856Z" fill="#999999" stroke="#263238" stroke-linecap="round" stroke-linejoin="round"/>
<path d="M457.838 223.856H452.537V229.284H457.838V223.856Z" fill="#999999" stroke="#263238" stroke-linecap="round" stroke-linejoin="round"/>
<path d="M465.715 223.856H460.414V229.284H465.715V223.856Z" fill="#999999" stroke="#263238" stroke-linecap="round" stroke-linejoin="round"/>
<path d="M473.592 223.856H468.292V229.284H473.592V223.856Z" fill="#999999" stroke="#263238" stroke-linecap="round" stroke-linejoin="round"/>
<path d="M481.469 223.856H476.168V229.284H481.469V223.856Z" fill="#999999" stroke="#263238" stroke-linecap="round" stroke-linejoin="round"/>
<path opacity="0.2" d="M489.361 223.856H484.06V229.284H489.361V223.856Z" fill="#263238"/>
<path opacity="0.2" d="M497.238 223.856H491.937V229.284H497.238V223.856Z" fill="#263238"/>
<path opacity="0.2" d="M505.116 223.856H499.815V229.284H505.116V223.856Z" fill="#263238"/>
<path opacity="0.2" d="M512.993 223.856H507.692V229.284H512.993V223.856Z" fill="#263238"/>
<path opacity="0.2" d="M520.884 223.856H515.583V229.284H520.884V223.856Z" fill="#263238"/>
<path opacity="0.2" d="M528.762 223.856H523.461V229.284H528.762V223.856Z" fill="#263238"/>
<path d="M434.192 278.791H428.891V284.218H434.192V278.791Z" fill="#999999" stroke="#263238" stroke-linecap="round" stroke-linejoin="round"/>
<path d="M442.069 278.791H436.768V284.218H442.069V278.791Z" fill="#999999" stroke="#263238" stroke-linecap="round" stroke-linejoin="round"/>
<path d="M449.946 278.791H444.645V284.218H449.946V278.791Z" fill="#999999" stroke="#263238" stroke-linecap="round" stroke-linejoin="round"/>
<path opacity="0.2" d="M457.838 278.791H452.537V284.218H457.838V278.791Z" fill="#263238"/>
<path opacity="0.2" d="M465.715 278.791H460.414V284.218H465.715V278.791Z" fill="#263238"/>
<path opacity="0.2" d="M473.592 278.791H468.291V284.218H473.592V278.791Z" fill="#263238"/>
<path opacity="0.2" d="M481.469 278.791H476.168V284.218H481.469V278.791Z" fill="#263238"/>
<path opacity="0.2" d="M489.361 278.791H484.06V284.218H489.361V278.791Z" fill="#263238"/>
<path opacity="0.2" d="M497.238 278.791H491.937V284.218H497.238V278.791Z" fill="#263238"/>
<path opacity="0.2" d="M505.116 278.791H499.815V284.218H505.116V278.791Z" fill="#263238"/>
<path opacity="0.2" d="M512.993 278.791H507.692V284.218H512.993V278.791Z" fill="#263238"/>
<path opacity="0.2" d="M520.884 278.791H515.583V284.218H520.884V278.791Z" fill="#263238"/>
<path opacity="0.2" d="M528.762 278.791H523.461V284.218H528.762V278.791Z" fill="#263238"/>
<path d="M434.192 260.479H428.891V265.907H434.192V260.479Z" fill="#999999" stroke="#263238" stroke-linecap="round" stroke-linejoin="round"/>
<path d="M442.069 260.479H436.768V265.907H442.069V260.479Z" fill="#999999" stroke="#263238" stroke-linecap="round" stroke-linejoin="round"/>
<path d="M449.946 260.479H444.645V265.907H449.946V260.479Z" fill="#999999" stroke="#263238" stroke-linecap="round" stroke-linejoin="round"/>
<path d="M457.838 260.479H452.537V265.907H457.838V260.479Z" fill="#999999" stroke="#263238" stroke-linecap="round" stroke-linejoin="round"/>
<path d="M465.715 260.479H460.414V265.907H465.715V260.479Z" fill="#999999" stroke="#263238" stroke-linecap="round" stroke-linejoin="round"/>
<path d="M473.592 260.479H468.291V265.907H473.592V260.479Z" fill="#999999" stroke="#263238" stroke-linecap="round" stroke-linejoin="round"/>
<path d="M481.469 260.479H476.168V265.907H481.469V260.479Z" fill="#999999" stroke="#263238" stroke-linecap="round" stroke-linejoin="round"/>
<path d="M489.361 260.479H484.06V265.907H489.361V260.479Z" fill="#999999" stroke="#263238" stroke-linecap="round" stroke-linejoin="round"/>
<path d="M497.238 260.479H491.937V265.907H497.238V260.479Z" fill="#E56262" stroke="#263238" stroke-linecap="round" stroke-linejoin="round"/>
<path d="M505.116 260.479H499.815V265.907H505.116V260.479Z" fill="#E56262" stroke="#263238" stroke-linecap="round" stroke-linejoin="round"/>
<path d="M512.993 260.479H507.692V265.907H512.993V260.479Z" fill="#E56262" stroke="#263238" stroke-linecap="round" stroke-linejoin="round"/>
<path d="M520.884 260.479H515.583V265.907H520.884V260.479Z" fill="#E56262" stroke="#263238" stroke-linecap="round" stroke-linejoin="round"/>
<path opacity="0.2" d="M528.762 260.479H523.461V265.907H528.762V260.479Z" fill="#263238"/>
<path d="M434.192 242.168H428.891V247.596H434.192V242.168Z" fill="#999999" stroke="#263238" stroke-linecap="round" stroke-linejoin="round"/>
<path d="M442.069 242.168H436.768V247.596H442.069V242.168Z" fill="#999999" stroke="#263238" stroke-linecap="round" stroke-linejoin="round"/>
<path d="M449.946 242.168H444.645V247.596H449.946V242.168Z" fill="#999999" stroke="#263238" stroke-linecap="round" stroke-linejoin="round"/>
<path d="M457.838 242.168H452.537V247.596H457.838V242.168Z" fill="#999999" stroke="#263238" stroke-linecap="round" stroke-linejoin="round"/>
<path d="M465.715 242.168H460.414V247.596H465.715V242.168Z" fill="#999999" stroke="#263238" stroke-linecap="round" stroke-linejoin="round"/>
<path opacity="0.2" d="M473.592 242.168H468.292V247.596H473.592V242.168Z" fill="#263238"/>
<path opacity="0.2" d="M481.469 242.168H476.168V247.596H481.469V242.168Z" fill="#263238"/>
<path opacity="0.2" d="M489.361 242.168H484.06V247.596H489.361V242.168Z" fill="#263238"/>
<path opacity="0.2" d="M497.238 242.168H491.937V247.596H497.238V242.168Z" fill="#263238"/>
<path opacity="0.2" d="M505.116 242.168H499.815V247.596H505.116V242.168Z" fill="#263238"/>
<path opacity="0.2" d="M512.993 242.168H507.692V247.596H512.993V242.168Z" fill="#263238"/>
<path opacity="0.2" d="M520.884 242.168H515.583V247.596H520.884V242.168Z" fill="#263238"/>
<path opacity="0.2" d="M528.762 242.168H523.461V247.596H528.762V242.168Z" fill="#263238"/>
<path opacity="0.4" d="M238.919 213.976H166.433C166.231 213.976 166.038 213.894 165.896 213.748C165.753 213.602 165.673 213.404 165.673 213.198C165.673 213.097 165.693 212.996 165.731 212.903C165.77 212.809 165.826 212.725 165.897 212.654C165.967 212.583 166.051 212.527 166.143 212.489C166.235 212.452 166.334 212.434 166.433 212.436H238.919C239.018 212.434 239.117 212.452 239.209 212.489C239.301 212.527 239.385 212.583 239.455 212.654C239.526 212.725 239.582 212.809 239.621 212.903C239.659 212.996 239.679 213.097 239.679 213.198C239.679 213.404 239.599 213.602 239.456 213.748C239.314 213.894 239.121 213.976 238.919 213.976Z" fill="#263238"/>
<path opacity="0.4" d="M243.744 232.287H166.433C166.231 232.287 166.038 232.205 165.896 232.06C165.753 231.914 165.673 231.716 165.673 231.51C165.673 231.408 165.693 231.308 165.731 231.215C165.77 231.121 165.826 231.036 165.897 230.965C165.967 230.894 166.051 230.838 166.143 230.801C166.235 230.764 166.334 230.745 166.433 230.747H243.744C243.843 230.745 243.941 230.764 244.033 230.801C244.125 230.838 244.209 230.894 244.28 230.965C244.351 231.036 244.407 231.121 244.445 231.215C244.483 231.308 244.503 231.408 244.503 231.51C244.503 231.716 244.423 231.914 244.281 232.06C244.138 232.205 243.945 232.287 243.744 232.287Z" fill="#263238"/>
<path opacity="0.4" d="M195.514 250.599H166.433C166.231 250.599 166.038 250.517 165.896 250.372C165.753 250.226 165.673 250.028 165.673 249.822C165.673 249.72 165.693 249.62 165.731 249.526C165.77 249.433 165.826 249.348 165.897 249.277C165.967 249.206 166.051 249.15 166.143 249.113C166.235 249.076 166.334 249.057 166.433 249.059H195.514C195.613 249.057 195.711 249.076 195.803 249.113C195.895 249.15 195.979 249.206 196.05 249.277C196.12 249.348 196.177 249.433 196.215 249.526C196.253 249.62 196.273 249.72 196.273 249.822C196.273 250.028 196.193 250.226 196.051 250.372C195.908 250.517 195.715 250.599 195.514 250.599Z" fill="#263238"/>
<path opacity="0.4" d="M219.621 268.911H166.433C166.231 268.911 166.038 268.829 165.896 268.683C165.753 268.537 165.673 268.339 165.673 268.133C165.673 268.032 165.693 267.931 165.731 267.838C165.77 267.744 165.826 267.659 165.897 267.588C165.967 267.517 166.051 267.462 166.143 267.424C166.235 267.387 166.334 267.369 166.433 267.371H219.621C219.72 267.369 219.819 267.387 219.911 267.424C220.003 267.462 220.087 267.517 220.157 267.588C220.228 267.659 220.284 267.744 220.323 267.838C220.361 267.931 220.381 268.032 220.381 268.133C220.381 268.339 220.301 268.537 220.158 268.683C220.016 268.829 219.823 268.911 219.621 268.911Z" fill="#263238"/>
<path opacity="0.4" d="M219.621 287.298H166.433C166.231 287.298 166.038 287.216 165.896 287.071C165.753 286.925 165.673 286.727 165.673 286.521C165.673 286.419 165.693 286.319 165.731 286.225C165.77 286.132 165.826 286.047 165.897 285.976C165.967 285.905 166.051 285.849 166.143 285.812C166.235 285.775 166.334 285.756 166.433 285.758H219.621C219.72 285.756 219.819 285.775 219.911 285.812C220.003 285.849 220.087 285.905 220.157 285.976C220.228 286.047 220.284 286.132 220.323 286.225C220.361 286.319 220.381 286.419 220.381 286.521C220.381 286.727 220.301 286.925 220.158 287.071C220.016 287.216 219.823 287.298 219.621 287.298Z" fill="#263238"/>
<path opacity="0.4" d="M389.521 213.976H331.448C331.349 213.976 331.251 213.956 331.16 213.916C331.069 213.877 330.986 213.82 330.917 213.747C330.847 213.675 330.793 213.589 330.756 213.495C330.72 213.4 330.702 213.3 330.704 213.198C330.704 212.996 330.782 212.802 330.922 212.659C331.062 212.516 331.251 212.436 331.448 212.436H389.521C389.62 212.434 389.719 212.452 389.811 212.489C389.903 212.527 389.986 212.583 390.057 212.654C390.128 212.725 390.184 212.809 390.222 212.903C390.261 212.996 390.281 213.097 390.28 213.198C390.28 213.404 390.2 213.602 390.058 213.748C389.916 213.894 389.722 213.976 389.521 213.976Z" fill="#263238"/>
<path opacity="0.4" d="M365.414 232.287H331.493C331.394 232.287 331.296 232.267 331.205 232.228C331.113 232.189 331.031 232.131 330.961 232.059C330.892 231.986 330.837 231.9 330.801 231.806C330.764 231.712 330.747 231.611 330.749 231.51C330.749 231.307 330.827 231.114 330.967 230.971C331.106 230.828 331.296 230.747 331.493 230.747H365.414C365.611 230.747 365.8 230.828 365.94 230.971C366.08 231.114 366.158 231.307 366.158 231.51C366.16 231.611 366.142 231.712 366.106 231.806C366.069 231.9 366.015 231.986 365.945 232.059C365.876 232.131 365.793 232.189 365.702 232.228C365.611 232.267 365.513 232.287 365.414 232.287Z" fill="#263238"/>
<path opacity="0.4" d="M365.413 250.599H331.493C331.394 250.599 331.296 250.579 331.205 250.54C331.113 250.5 331.031 250.443 330.961 250.37C330.892 250.298 330.837 250.212 330.801 250.118C330.764 250.024 330.747 249.923 330.749 249.822C330.749 249.619 330.827 249.425 330.967 249.283C331.106 249.14 331.296 249.059 331.493 249.059H365.413C365.611 249.059 365.8 249.14 365.94 249.283C366.08 249.425 366.158 249.619 366.158 249.822C366.16 249.923 366.142 250.024 366.106 250.118C366.069 250.212 366.015 250.298 365.945 250.37C365.876 250.443 365.793 250.5 365.702 250.54C365.611 250.579 365.512 250.599 365.413 250.599Z" fill="#263238"/>
<path opacity="0.4" d="M401.582 268.911H331.493C331.394 268.911 331.296 268.891 331.205 268.851C331.113 268.812 331.031 268.755 330.961 268.682C330.892 268.61 330.837 268.524 330.801 268.43C330.764 268.336 330.747 268.235 330.749 268.133C330.749 267.931 330.827 267.737 330.967 267.594C331.106 267.451 331.296 267.371 331.493 267.371H401.582C401.78 267.371 401.969 267.451 402.109 267.594C402.248 267.737 402.327 267.931 402.327 268.133C402.329 268.235 402.311 268.336 402.274 268.43C402.238 268.524 402.183 268.61 402.114 268.682C402.045 268.755 401.962 268.812 401.871 268.851C401.779 268.891 401.681 268.911 401.582 268.911Z" fill="#263238"/>
<path opacity="0.4" d="M401.582 287.298H331.493C331.394 287.298 331.296 287.278 331.205 287.239C331.113 287.199 331.031 287.142 330.961 287.069C330.892 286.997 330.837 286.911 330.801 286.817C330.764 286.723 330.747 286.622 330.749 286.521C330.749 286.318 330.827 286.124 330.967 285.981C331.106 285.838 331.296 285.758 331.493 285.758H401.582C401.78 285.758 401.969 285.838 402.109 285.981C402.248 286.124 402.327 286.318 402.327 286.521C402.329 286.622 402.311 286.723 402.274 286.817C402.238 286.911 402.183 286.997 402.114 287.069C402.045 287.142 401.962 287.199 401.871 287.239C401.779 287.278 401.681 287.298 401.582 287.298Z" fill="#263238"/>
<path d="M332.2 395.703C350.625 382.016 354.726 355.626 341.359 336.759C327.992 317.893 302.219 313.694 283.794 327.381C265.368 341.068 261.268 367.459 274.635 386.325C288.002 405.192 313.775 409.39 332.2 395.703Z" fill="white" stroke="#263238" stroke-linecap="round" stroke-linejoin="round"/>
<path d="M315.56 337.614C315.126 337.468 314.767 337.151 314.56 336.734C314.354 336.317 314.317 335.833 314.458 335.388L316.915 327.566C317.058 327.122 317.367 326.754 317.775 326.543C318.182 326.331 318.655 326.294 319.089 326.438C319.305 326.507 319.504 326.62 319.677 326.769C319.849 326.918 319.991 327.101 320.094 327.307C320.196 327.512 320.258 327.737 320.274 327.968C320.291 328.198 320.263 328.43 320.191 328.649L317.734 336.471C317.591 336.915 317.283 337.284 316.876 337.498C316.469 337.712 315.997 337.754 315.56 337.614Z" fill="#E56262" stroke="#263238" stroke-linecap="round" stroke-linejoin="round"/>
<g opacity="0.4">
<path d="M307.996 410.799C334.551 410.799 356.077 388.757 356.077 361.566C356.077 334.376 334.551 312.334 307.996 312.334C281.441 312.334 259.915 334.376 259.915 361.566C259.915 388.757 281.441 410.799 307.996 410.799Z" stroke="#263238" stroke-width="3" stroke-miterlimit="10" stroke-dasharray="0.98 14.63"/>
</g>
<path d="M213.382 422.997H174.503C174.108 422.997 173.73 422.836 173.45 422.55C173.171 422.265 173.014 421.877 173.014 421.472C173.014 421.068 173.171 420.68 173.45 420.394C173.73 420.108 174.108 419.948 174.503 419.948H213.382C213.777 419.948 214.156 420.108 214.435 420.394C214.714 420.68 214.871 421.068 214.871 421.472C214.871 421.673 214.833 421.871 214.758 422.056C214.683 422.241 214.573 422.409 214.435 422.55C214.297 422.692 214.133 422.804 213.952 422.881C213.771 422.958 213.578 422.997 213.382 422.997Z" fill="#263238"/>
<path opacity="0.4" d="M210.91 427.175H176.99C176.891 427.175 176.793 427.154 176.702 427.115C176.61 427.076 176.527 427.018 176.458 426.946C176.389 426.874 176.334 426.788 176.298 426.693C176.261 426.599 176.243 426.498 176.245 426.397C176.243 426.296 176.261 426.195 176.298 426.101C176.334 426.006 176.389 425.92 176.458 425.848C176.527 425.776 176.61 425.718 176.702 425.679C176.793 425.64 176.891 425.619 176.99 425.619H210.91C211.009 425.619 211.107 425.64 211.199 425.679C211.29 425.718 211.373 425.776 211.442 425.848C211.511 425.92 211.566 426.006 211.603 426.101C211.639 426.195 211.657 426.296 211.655 426.397C211.657 426.498 211.639 426.599 211.603 426.693C211.566 426.788 211.511 426.874 211.442 426.946C211.373 427.018 211.29 427.076 211.199 427.115C211.107 427.154 211.009 427.175 210.91 427.175Z" fill="#263238"/>
<path d="M327.443 422.997H288.549C288.154 422.997 287.775 422.836 287.496 422.55C287.217 422.265 287.06 421.877 287.06 421.472C287.06 421.068 287.217 420.68 287.496 420.394C287.775 420.108 288.154 419.948 288.549 419.948H327.443C327.838 419.948 328.217 420.108 328.496 420.394C328.775 420.68 328.932 421.068 328.932 421.472C328.932 421.877 328.775 422.265 328.496 422.55C328.217 422.836 327.838 422.997 327.443 422.997Z" fill="#263238"/>
<path opacity="0.4" d="M324.956 427.175H291.036C290.937 427.175 290.839 427.154 290.747 427.115C290.656 427.076 290.573 427.018 290.504 426.946C290.435 426.874 290.38 426.788 290.344 426.693C290.307 426.599 290.289 426.498 290.291 426.397C290.289 426.296 290.307 426.195 290.344 426.101C290.38 426.006 290.435 425.92 290.504 425.848C290.573 425.776 290.656 425.718 290.747 425.679C290.839 425.64 290.937 425.619 291.036 425.619H324.956C325.055 425.619 325.153 425.64 325.245 425.679C325.336 425.718 325.419 425.776 325.488 425.848C325.557 425.92 325.612 426.006 325.648 426.101C325.685 426.195 325.703 426.296 325.701 426.397C325.703 426.498 325.685 426.599 325.648 426.693C325.612 426.788 325.557 426.874 325.488 426.946C325.419 427.018 325.336 427.076 325.245 427.115C325.153 427.154 325.055 427.175 324.956 427.175Z" fill="#263238"/>
<path opacity="0.5" d="M543.756 307.592H394.673C392.009 307.592 389.849 309.804 389.849 312.532V423.683C389.849 426.411 392.009 428.623 394.673 428.623H543.756C546.421 428.623 548.581 426.411 548.581 423.683V312.532C548.581 309.804 546.421 307.592 543.756 307.592Z" fill="#E56262"/>
<path d="M532.603 326.53H470.823C469.293 326.53 468.053 327.799 468.053 329.366V333.589C468.053 335.155 469.293 336.425 470.823 336.425H532.603C534.133 336.425 535.373 335.155 535.373 333.589V329.366C535.373 327.799 534.133 326.53 532.603 326.53Z" fill="#999999" stroke="#263238" stroke-linecap="round" stroke-linejoin="round"/>
<path d="M528.449 329.578L530.757 333.375L533.065 329.578H528.449Z" fill="#E56262"/>
<path d="M497.7 333.04H473.295C472.9 333.04 472.521 332.879 472.242 332.593C471.962 332.307 471.806 331.919 471.806 331.515C471.806 331.111 471.962 330.723 472.242 330.437C472.521 330.151 472.9 329.99 473.295 329.99H497.7C498.095 329.99 498.474 330.151 498.753 330.437C499.032 330.723 499.189 331.111 499.189 331.515C499.189 331.919 499.032 332.307 498.753 332.593C498.474 332.879 498.095 333.04 497.7 333.04Z" fill="white"/>
<path d="M532.603 399.776H470.823C469.293 399.776 468.053 401.045 468.053 402.612V406.835C468.053 408.401 469.293 409.671 470.823 409.671H532.603C534.133 409.671 535.373 408.401 535.373 406.835V402.612C535.373 401.045 534.133 399.776 532.603 399.776Z" fill="#999999" stroke="#263238" stroke-linecap="round" stroke-linejoin="round"/>
<path d="M528.449 402.825L530.757 406.622L533.065 402.825H528.449Z" fill="#E56262"/>
<path d="M497.7 406.225H473.295C472.9 406.225 472.521 406.064 472.242 405.778C471.962 405.492 471.806 405.105 471.806 404.7C471.806 404.296 471.962 403.908 472.242 403.622C472.521 403.336 472.9 403.176 473.295 403.176H497.7C498.095 403.176 498.474 403.336 498.753 403.622C499.032 403.908 499.189 404.296 499.189 404.7C499.189 405.105 499.032 405.492 498.753 405.778C498.474 406.064 498.095 406.225 497.7 406.225Z" fill="#263238"/>
<path d="M532.603 344.841H470.823C469.293 344.841 468.053 346.11 468.053 347.677V351.9C468.053 353.466 469.293 354.736 470.823 354.736H532.603C534.133 354.736 535.373 353.466 535.373 351.9V347.677C535.373 346.11 534.133 344.841 532.603 344.841Z" fill="#999999" stroke="#263238" stroke-linecap="round" stroke-linejoin="round"/>
<path d="M528.449 347.891L530.757 351.687L533.065 347.891H528.449Z" fill="#E56262"/>
<path d="M504.937 351.336H473.295C472.9 351.336 472.521 351.175 472.242 350.889C471.962 350.604 471.806 350.216 471.806 349.811C471.806 349.407 471.962 349.019 472.242 348.733C472.521 348.447 472.9 348.287 473.295 348.287H504.937C505.332 348.287 505.71 348.447 505.99 348.733C506.269 349.019 506.426 349.407 506.426 349.811C506.426 350.216 506.269 350.604 505.99 350.889C505.71 351.175 505.332 351.336 504.937 351.336Z" fill="#263238"/>
<path d="M532.603 363.153H470.823C469.293 363.153 468.053 364.423 468.053 365.989V370.212C468.053 371.779 469.293 373.048 470.823 373.048H532.603C534.133 373.048 535.373 371.779 535.373 370.212V365.989C535.373 364.423 534.133 363.153 532.603 363.153Z" fill="#999999" stroke="#263238" stroke-linecap="round" stroke-linejoin="round"/>
<path d="M528.449 366.202L530.757 370.014L533.065 366.202H528.449Z" fill="#E56262"/>
<path d="M497.7 369.633H473.295C472.9 369.633 472.521 369.472 472.242 369.186C471.962 368.9 471.806 368.512 471.806 368.108C471.806 367.703 471.962 367.316 472.242 367.03C472.521 366.744 472.9 366.583 473.295 366.583H497.7C498.095 366.583 498.474 366.744 498.753 367.03C499.032 367.316 499.189 367.703 499.189 368.108C499.189 368.512 499.032 368.9 498.753 369.186C498.474 369.472 498.095 369.633 497.7 369.633Z" fill="#263238"/>
<path d="M532.603 381.464H470.823C469.293 381.464 468.053 382.734 468.053 384.3V388.524C468.053 390.09 469.293 391.36 470.823 391.36H532.603C534.133 391.36 535.373 390.09 535.373 388.524V384.3C535.373 382.734 534.133 381.464 532.603 381.464Z" fill="#999999" stroke="#263238" stroke-linecap="round" stroke-linejoin="round"/>
<path d="M528.449 384.513L530.757 388.31L533.065 384.513H528.449Z" fill="#E56262"/>
<path d="M504.937 387.929H473.295C472.9 387.929 472.521 387.768 472.242 387.482C471.962 387.197 471.806 386.809 471.806 386.404C471.806 386 471.962 385.612 472.242 385.326C472.521 385.04 472.9 384.88 473.295 384.88H504.937C505.332 384.88 505.71 385.04 505.99 385.326C506.269 385.612 506.426 386 506.426 386.404C506.426 386.809 506.269 387.197 505.99 387.482C505.71 387.768 505.332 387.929 504.937 387.929Z" fill="#263238"/>
<path d="M453.088 333.04H404.56C404.165 333.04 403.787 332.879 403.508 332.593C403.228 332.307 403.071 331.919 403.071 331.515C403.071 331.111 403.228 330.723 403.508 330.437C403.787 330.151 404.165 329.99 404.56 329.99H453.088C453.483 329.99 453.862 330.151 454.141 330.437C454.42 330.723 454.577 331.111 454.577 331.515C454.577 331.919 454.42 332.307 454.141 332.593C453.862 332.879 453.483 333.04 453.088 333.04Z" fill="#263238"/>
<path d="M438.615 351.336H404.56C404.165 351.336 403.787 351.175 403.508 350.889C403.228 350.604 403.071 350.216 403.071 349.811C403.071 349.407 403.228 349.019 403.508 348.733C403.787 348.447 404.165 348.287 404.56 348.287H438.615C439.01 348.287 439.388 348.447 439.668 348.733C439.947 349.019 440.104 349.407 440.104 349.811C440.104 350.216 439.947 350.604 439.668 350.889C439.388 351.175 439.01 351.336 438.615 351.336Z" fill="#263238"/>
<path d="M443.439 369.633H404.56C404.165 369.633 403.787 369.472 403.508 369.186C403.228 368.9 403.071 368.512 403.071 368.108C403.071 367.703 403.228 367.316 403.508 367.03C403.787 366.744 404.165 366.583 404.56 366.583H443.439C443.834 366.583 444.213 366.744 444.492 367.03C444.771 367.316 444.928 367.703 444.928 368.108C444.928 368.512 444.771 368.9 444.492 369.186C444.213 369.472 443.834 369.633 443.439 369.633Z" fill="#263238"/>
<path d="M431.378 387.929H404.575C404.18 387.929 403.802 387.768 403.522 387.482C403.243 387.197 403.086 386.809 403.086 386.404C403.086 386 403.243 385.612 403.522 385.326C403.802 385.04 404.18 384.88 404.575 384.88H431.378C431.773 384.88 432.152 385.04 432.431 385.326C432.71 385.612 432.867 386 432.867 386.404C432.867 386.809 432.71 387.197 432.431 387.482C432.152 387.768 431.773 387.929 431.378 387.929Z" fill="#263238"/>
<path d="M438.615 406.225H404.56C404.165 406.225 403.787 406.064 403.508 405.778C403.228 405.492 403.071 405.105 403.071 404.7C403.071 404.296 403.228 403.908 403.508 403.622C403.787 403.336 404.165 403.176 404.56 403.176H438.615C439.01 403.176 439.388 403.336 439.668 403.622C439.947 403.908 440.104 404.296 440.104 404.7C440.104 405.105 439.947 405.492 439.668 405.778C439.388 406.064 439.01 406.225 438.615 406.225Z" fill="#263238"/>
<path d="M234.779 367.472C237.955 344.392 222.256 323.045 199.716 319.793C177.175 316.541 156.327 332.615 153.151 355.696C149.976 378.777 165.674 400.123 188.215 403.375C210.755 406.627 231.603 390.553 234.779 367.472Z" fill="white" stroke="#263238" stroke-linecap="round" stroke-linejoin="round"/>
<path d="M218.579 360.591C218.569 360.36 218.604 360.129 218.682 359.911C218.76 359.693 218.879 359.494 219.033 359.323C219.186 359.153 219.371 359.016 219.577 358.92C219.783 358.823 220.006 358.77 220.232 358.762L228.243 358.442C228.469 358.431 228.695 358.467 228.907 358.547C229.12 358.627 229.315 358.749 229.481 358.906C229.647 359.063 229.781 359.253 229.875 359.464C229.97 359.675 230.022 359.902 230.03 360.134C230.04 360.365 230.005 360.597 229.927 360.814C229.849 361.032 229.73 361.232 229.576 361.402C229.422 361.572 229.237 361.709 229.031 361.806C228.826 361.902 228.603 361.956 228.377 361.964L220.366 362.284C220.14 362.294 219.914 362.258 219.701 362.178C219.489 362.099 219.294 361.977 219.128 361.819C218.961 361.662 218.827 361.472 218.733 361.262C218.639 361.051 218.587 360.823 218.579 360.591Z" fill="#E56262" stroke="#263238" stroke-linecap="round" stroke-linejoin="round"/>
<g opacity="0.4">
<path d="M193.95 410.799C220.505 410.799 242.031 388.757 242.031 361.566C242.031 334.376 220.505 312.334 193.95 312.334C167.396 312.334 145.869 334.376 145.869 361.566C145.869 388.757 167.396 410.799 193.95 410.799Z" stroke="#263238" stroke-width="3" stroke-miterlimit="10" stroke-dasharray="0.98 14.63"/>
</g>
<path d="M351.982 445.426L347.217 443.535L342.467 445.426" stroke="#263238" stroke-linecap="round" stroke-linejoin="round"/>
<path d="M351.982 449.131L347.217 447.24L342.467 449.131" stroke="#263238" stroke-linecap="round" stroke-linejoin="round"/>
<path d="M544.114 157.745H150.336C147.869 157.745 145.869 159.793 145.869 162.319V179.853C145.869 182.379 147.869 184.427 150.336 184.427H544.114C546.581 184.427 548.581 182.379 548.581 179.853V162.319C548.581 159.793 546.581 157.745 544.114 157.745Z" fill="#E56262" stroke="#263238" stroke-linecap="round" stroke-linejoin="round"/>
<path d="M325.879 172.595V169.546L323.661 169.348C323.53 168.875 323.345 168.419 323.11 167.991L324.599 166.253L322.514 164.118L320.817 165.643C320.399 165.399 319.954 165.21 319.491 165.079L319.298 162.822H316.32L316.141 165.079C315.677 165.207 315.232 165.396 314.816 165.643L313.118 164.118L311.034 166.253L312.523 167.991C312.298 168.423 312.119 168.878 311.987 169.348L309.768 169.546V172.595L311.987 172.794C312.119 173.264 312.298 173.719 312.523 174.151L311.034 175.873L313.118 178.023L314.816 176.499C315.232 176.74 315.678 176.924 316.141 177.048L316.32 179.319H319.298L319.491 177.048C319.954 176.922 320.399 176.737 320.817 176.499L322.514 178.023L324.599 175.873L323.11 174.151C323.345 173.722 323.53 173.267 323.661 172.794L325.879 172.595ZM317.764 174.593C317.083 174.593 316.418 174.386 315.852 173.998C315.286 173.61 314.845 173.059 314.585 172.415C314.325 171.771 314.258 171.062 314.392 170.378C314.526 169.694 314.855 169.067 315.337 168.575C315.82 168.083 316.434 167.749 317.102 167.614C317.77 167.48 318.463 167.552 319.091 167.821C319.719 168.09 320.255 168.544 320.631 169.125C321.008 169.706 321.207 170.389 321.204 171.086C321.204 171.548 321.115 172.005 320.942 172.431C320.769 172.858 320.515 173.245 320.195 173.571C319.876 173.897 319.497 174.155 319.079 174.33C318.662 174.506 318.215 174.595 317.764 174.593Z" fill="white"/>
<path d="M332.997 163.798C335.111 163.798 336.184 165.094 336.184 167.35V167.808H334.144V167.213C334.144 166.207 333.742 165.825 333.057 165.825C332.372 165.825 331.97 166.207 331.97 167.213C331.97 168.219 332.401 169.012 333.816 170.262C335.633 171.894 336.213 173.068 336.213 174.684C336.292 175.149 336.264 175.625 336.132 176.077C336 176.529 335.768 176.943 335.454 177.287C335.139 177.632 334.751 177.896 334.319 178.061C333.888 178.226 333.425 178.286 332.967 178.237C330.838 178.237 329.736 176.941 329.736 174.684V173.815H331.791V174.821C331.791 175.843 332.223 176.193 332.908 176.193C333.593 176.193 334.039 175.843 334.039 174.821C334.039 173.8 333.608 173.022 332.178 171.772C330.361 170.125 329.796 168.966 329.796 167.335C329.796 165.139 330.883 163.798 332.997 163.798Z" fill="#263238"/>
<path d="M339.623 169.973H342.601V171.986H339.623V176.133H343.376V178.161H337.419V164.012H343.376V166.024H339.623V169.973Z" fill="#263238"/>
<path d="M344.076 164.012H350.791V166.024H348.528V178.222H346.354V166.024H344.076V164.012Z" fill="#263238"/>
<path d="M351.104 164.012H357.819V166.024H355.541V178.222H353.382V166.024H351.104V164.012Z" fill="#263238"/>
<path d="M358.758 164.012H360.931V178.161H358.758V164.012Z" fill="#263238"/>
<path d="M364.49 167.915V178.161H362.54V164.012H365.265L367.453 172.474V164.012H369.389V178.161H367.171L364.49 167.915Z" fill="#263238"/>
<path d="M374.199 170.278H377.177V174.761C377.255 175.225 377.228 175.702 377.096 176.154C376.964 176.605 376.732 177.02 376.417 177.364C376.103 177.708 375.714 177.973 375.283 178.138C374.852 178.303 374.389 178.363 373.931 178.313C371.801 178.313 370.7 177.017 370.7 174.761V167.396C370.7 165.14 371.801 163.844 373.931 163.844C374.389 163.794 374.852 163.854 375.283 164.019C375.714 164.184 376.103 164.449 376.417 164.793C376.732 165.137 376.964 165.552 377.096 166.003C377.228 166.455 377.255 166.932 377.177 167.396V168.784H375.256V167.259C375.256 166.253 374.824 165.872 374.124 165.872C373.425 165.872 373.008 166.253 373.008 167.259V174.883C373.008 175.904 373.439 176.255 374.124 176.255C374.809 176.255 375.256 175.904 375.256 174.883V172.275H374.273L374.199 170.278Z" fill="#263238"/>
<path d="M381.555 163.798C383.669 163.798 384.756 165.094 384.756 167.35V167.808H382.701V167.213C382.701 166.207 382.299 165.825 381.614 165.825C380.929 165.825 380.527 166.207 380.527 167.213C380.527 168.219 380.959 169.012 382.389 170.262C383.104 170.748 383.694 171.404 384.109 172.174C384.524 172.944 384.751 173.805 384.771 174.684C384.771 176.941 383.669 178.237 381.54 178.237C381.082 178.286 380.619 178.226 380.188 178.061C379.756 177.896 379.368 177.632 379.053 177.287C378.739 176.943 378.507 176.529 378.375 176.077C378.243 175.625 378.215 175.149 378.294 174.684V173.815H380.349V174.821C380.349 175.843 380.78 176.193 381.48 176.193C382.18 176.193 382.597 175.843 382.597 174.821C382.597 173.8 382.165 173.022 380.751 171.772C378.934 170.125 378.353 168.966 378.353 167.335C378.353 165.139 379.44 163.798 381.555 163.798Z" fill="#263238"/>
<g opacity="0.4">
<path d="M319.328 143.87L133.063 334.565V157.242C133.063 153.695 134.439 150.294 136.888 147.786C139.337 145.279 142.659 143.87 146.122 143.87H319.328Z" fill="white"/>
<path d="M380.9 143.87L133.063 397.642V387.442L370.938 143.87H380.9Z" fill="white"/>
<path d="M481.872 143.87L179.447 453.538H176.335L478.745 143.87H481.872Z" fill="white"/>
</g>
<path opacity="0.3" d="M513.007 211.658C502.584 210.972 499.814 229.299 499.814 247.611C499.814 265.922 505.771 277.754 507.692 284.203C509.612 290.653 509.523 312.075 506.441 320.674C503.358 329.274 490.299 356.337 481.797 372.133C473.295 387.929 485.222 435.942 491.937 448.155C498.653 460.368 534.256 471.864 542.088 486.273C549.921 500.681 546.362 504.828 553.539 515.547C560.716 526.266 594.696 563.819 613.428 631.104L629.674 402.749L568.117 334.93L513.007 211.658Z" fill="black" fill-opacity="0.7"/>
<path d="M611.091 641.137L610.823 641.473L612.073 640.939C611.701 641.03 611.359 641.107 611.091 641.137ZM701.133 527.287C699.987 525.351 698.899 523.476 697.857 521.661C676.594 484.55 672.811 468.632 670.28 457.929C669.331 453.06 667.79 448.332 665.694 443.855L664.458 441.416C660.939 435.061 658.241 428.265 656.432 421.198C655.151 415.572 656.953 401.865 658.695 388.615C659.946 379.056 661.137 370.045 661.018 364.922V363.107C660.72 349.69 660.095 321.788 657.37 313.966C654.749 306.449 652.114 305.26 647.319 303.125L645.83 302.424C644.028 301.6 640.991 299.878 637.476 297.85C629.585 293.382 619.742 287.787 614.694 286.933C609.966 286.238 605.16 286.325 600.459 287.192C594.324 282.1 583.886 275.452 580.714 275.238C577.543 275.025 569.606 277.327 568.281 277.708C566.511 276.206 564.606 274.879 562.592 273.744C558.051 271.64 550.397 271.914 549.012 271.991C543.786 263.239 538.589 254.487 536.43 250.645C532.454 243.784 521.54 218.824 518.323 211.368C517.757 210.057 517.43 209.28 517.4 209.234C517.361 209.142 517.293 209.067 517.206 209.02C517.102 209.02 507.572 205.544 503.582 214.601C499.591 223.658 504.386 244.546 509.463 252.139C511.92 255.814 518.472 270.679 525.113 286.048C524.637 286.491 523.282 287.695 521.42 289.296C516.075 293.87 506.53 301.616 501.259 303.369C495.437 305.29 495.958 335.601 496.36 359.966C496.509 368.931 496.643 376.738 496.36 381.312C496.136 385.658 499.695 390.902 505.145 396.559H505.22C512.022 403.239 519.17 409.54 526.632 415.435C540.316 426.672 554.462 438.306 555.922 446.463C557.204 454.638 560.796 462.249 566.256 468.358C573.567 476.073 599.759 593.292 607.949 630.144C609.438 636.99 610.376 641.046 610.421 641.168L611.15 641.015C616.377 634.383 701.118 527.684 701.059 527.669C701.103 527.618 701.134 527.555 701.147 527.488C701.16 527.421 701.155 527.352 701.133 527.287ZM523.669 320.034C524.711 318.997 531.74 311.816 533.08 304.68C537.845 315.689 540.793 322.306 541.523 322.977C542.252 323.648 542.118 327.155 541.999 330.509C541.79 333.448 541.79 336.398 541.999 339.337C540.748 340.404 532.737 347.464 530.995 353.288L524.577 345.1L523.669 320.034Z" fill="white"/>
<path opacity="0.4" d="M546.928 330.844C549.132 321.254 537.994 311.679 525.009 286.064C524.533 286.506 523.178 287.71 521.316 289.311C523.282 294.754 524.711 301.051 522.001 303.308C516.849 307.608 514.839 307.745 515.077 312.456C515.315 317.168 521.286 350.452 518.77 358.197C516.254 365.943 533.66 368.078 536.37 369.617C539.081 371.157 536.251 357.557 542.863 351.839C549.474 346.122 544.471 341.532 546.928 330.844ZM531.055 353.334L524.637 345.146L523.669 320.034C524.711 318.997 531.74 311.816 533.08 304.68C537.845 315.689 540.793 322.306 541.523 322.977C542.252 323.648 542.118 327.154 541.999 330.509C541.79 333.448 541.79 336.398 541.999 339.337C540.808 340.45 532.797 347.509 531.055 353.334Z" fill="#E56262"/>
<path opacity="0.4" d="M607.889 630.266C599.699 593.414 573.507 476.195 566.196 468.48C560.737 462.371 557.144 454.76 555.862 446.585C554.373 438.412 540.257 426.764 526.573 415.557C519.11 409.662 511.962 403.361 505.16 396.681C518.561 408.132 551.603 431.749 557.604 431.948C563.828 432.131 564.35 457.73 574.43 464.439C584.079 470.828 623.092 583.534 607.889 630.266Z" fill="#E56262"/>
<path opacity="0.4" d="M697.857 521.646C679.602 516.568 663.222 478.466 662.299 469.165C661.212 458.248 661.406 449.893 648.734 435.286C636.062 420.68 643.641 412.766 643.641 412.766C644.654 417.661 653.231 425.33 653.231 425.33C649.776 414.337 653.722 374.405 655.345 366.949C656.834 360.393 657.4 319.942 649.389 306.555C640.023 300.563 640.901 310.718 633.56 310.199C629.585 309.91 622.973 305.32 616.824 305.198C611.135 305.122 611.091 313.051 595.069 305.427C587.013 301.585 583.156 313.34 573.88 308.477C559.897 301.021 550.502 273.972 541.344 265.953C537.056 262.156 527.317 245.354 525.426 235.016C523.937 227.012 513.618 234.452 508.719 225.868C504.699 218.778 506.888 208.563 518.234 211.505C521.48 218.961 532.365 243.921 536.341 250.782C538.559 254.624 543.697 263.376 548.923 272.128C550.308 272.051 557.962 271.777 562.503 273.881C564.517 275.016 566.422 276.343 568.191 277.845C569.517 277.464 577.424 275.131 580.625 275.375C583.826 275.619 594.235 282.236 600.37 287.329C605.071 286.462 609.877 286.375 614.605 287.07C619.653 287.924 629.495 293.519 637.387 297.987C640.901 299.999 643.939 301.722 645.741 302.561L647.23 303.262C652.025 305.397 654.675 306.586 657.281 314.103C660.006 321.924 660.631 349.827 660.929 363.244V365.058C661.048 370.181 659.857 379.192 658.606 388.752C656.864 402.002 655.062 415.709 656.343 421.335C658.151 428.402 660.849 435.198 664.369 441.553L665.605 443.992C667.701 448.469 669.242 453.197 670.191 458.065C672.812 468.616 676.594 484.534 697.857 521.646Z" fill="#E56262"/>
<path d="M573.209 302.728C568.797 301.162 564.964 298.238 562.235 294.358C557.857 287.984 540.763 259.015 536.028 250.842C531.293 242.67 516.983 209.37 516.983 209.37C516.983 209.37 507.706 205.894 503.82 214.753C499.934 223.611 504.341 243.981 509.672 251.94C515.003 259.899 539.736 320.75 541.776 322.748C543.816 324.745 540.287 340.678 544.307 344.673" stroke="#263238" stroke-linecap="round" stroke-linejoin="round"/>
<path d="M542.446 339.535C542.446 339.535 532.529 347.875 531.218 354.126L524.294 345.283L523.297 319.881C523.297 319.881 532.231 311.267 532.901 303.369" stroke="#263238" stroke-linecap="round" stroke-linejoin="round"/>
<path d="M525.471 286.14C525.471 286.14 508.987 301.189 501.274 303.735C493.56 306.281 497.506 364.54 496.658 381.358C495.809 398.175 553.122 429.188 556.219 446.523C557.489 454.629 561.057 462.174 566.479 468.22C575.279 477.506 610.703 641.137 610.703 641.137" stroke="#263238" stroke-linecap="round" stroke-linejoin="round"/>
<path d="M548.73 272.371C548.73 272.371 557.485 271.822 562.354 274.064C567.223 276.305 586.7 294.479 591.435 297.971C596.17 301.463 603.348 302.942 604.673 306.601" stroke="#263238" stroke-linecap="round" stroke-linejoin="round"/>
<path d="M568.117 278.15C568.117 278.15 577.2 275.375 580.595 275.634C583.99 275.894 596.692 284.066 602.335 289.357C606.65 293.517 611.665 296.844 617.136 299.176" stroke="#263238" stroke-linecap="round" stroke-linejoin="round"/>
<path d="M600.28 287.588C604.988 286.694 609.807 286.596 614.545 287.298C621.812 288.518 639.859 300.09 645.592 302.743C651.325 305.396 654.139 305.945 656.983 314.087C659.827 322.229 660.378 352.83 660.661 364.921C660.944 377.012 653.826 411.455 656.09 421.335C658.353 431.215 662.731 438.793 665.366 444.083C673.124 459.666 665.947 468.082 700.82 527.561" stroke="#263238" stroke-linecap="round" stroke-linejoin="round"/>
<path d="M611.388 310.077C617.91 317.594 615.052 330.097 613.577 333.71C612.103 337.324 614.873 352.83 615.334 361.048" stroke="#263238" stroke-linecap="round" stroke-linejoin="round"/>
<path d="M564.275 310.657C577.453 312.593 580.58 322.321 580.655 328.45" stroke="#263238" stroke-linecap="round" stroke-linejoin="round"/>
<path d="M622.065 304.07C626.026 304.268 635.392 311.846 636.136 322.443" stroke="#263238" stroke-linecap="round" stroke-linejoin="round"/>
<path d="M523.297 319.881C523.297 319.881 522.016 313.889 520.125 313.066" stroke="#263238" stroke-linecap="round" stroke-linejoin="round"/>
<path d="M524.294 345.237C524.866 348.737 525.677 352.191 526.722 355.574C528.047 359.234 525.679 364.402 525.679 364.402" stroke="#263238" stroke-linecap="round" stroke-linejoin="round"/>
<path d="M531.218 354.126C530.816 359.92 536.266 366.858 537.666 365.943" stroke="#263238" stroke-linecap="round" stroke-linejoin="round"/>
<path opacity="0.3" d="M220.827 334.84C228.704 338.881 221.11 381.283 208.319 392.504L196.273 440.792L208.319 493.608L238.264 474.381C238.264 474.381 241.242 455.566 252.157 449.132C263.072 442.698 263.101 452.883 263.101 452.883C263.101 452.883 251.427 482.584 252.157 493.608C252.887 504.631 232.665 525.047 223.135 539.776C213.606 554.504 189.87 549.275 166.001 565.147C142.132 581.019 72.1911 656.629 72.1911 656.629L117.011 469.121L220.827 334.84Z" fill="black" fill-opacity="0.7"/>
<path d="M234.318 457.929C232.116 460.738 230.124 463.715 228.362 466.833C227.379 468.48 226.456 470.203 225.548 471.972C225.131 472.749 224.729 473.496 224.342 474.335L224.193 474.64C223.746 475.539 223.314 476.439 222.868 477.354C222.819 477.479 222.765 477.601 222.704 477.72C222.317 478.513 221.959 479.244 221.602 480.098C221.245 480.952 220.768 481.943 220.381 482.858L219.324 485.313C218.296 487.691 217.328 490.07 216.346 492.357C215.363 494.644 214.633 496.687 213.844 498.7C213.755 498.898 213.68 499.096 213.606 499.294C213.397 499.797 213.204 500.301 213.025 500.819C212.087 503.243 211.223 505.469 210.434 507.406C210.382 507.563 210.318 507.717 210.241 507.863C210.241 507.985 210.121 508.122 210.047 508.244C208.389 510.919 206.178 513.188 203.57 514.892C203.048 515.273 202.512 515.654 201.947 516.02C200.458 517.072 198.686 518.109 196.869 519.161L195.484 519.924C194.367 520.549 193.236 521.159 192.059 521.753C178.658 528.736 162.13 535.018 157.916 539.684C152.332 545.905 151.364 550.982 144.514 558.3C142.552 560.4 140.452 562.361 138.23 564.171C129.579 571.352 109.477 609.652 97.0733 634.307C90.8937 646.581 86.65 655.485 86.65 655.485L1.07467 614.318C1.07467 614.318 45.9991 550.463 48.2624 539.608C50.5258 528.752 57.0329 517.697 57.0329 517.697C57.0329 517.697 55.9161 493.211 57.5392 476.012C59.1622 458.813 63.1975 429.89 65.1035 418.332C67.0095 406.775 78.0731 388.692 83.3741 374.924C88.6751 361.156 91.7276 348.714 96.4181 340.252C101.109 331.79 105.665 316.802 108.42 315.217C111.175 313.631 114.093 316.131 117.086 320.507C120.079 324.883 112.857 350.315 112.857 350.315C118.099 341.472 121.389 323.206 123.28 318.464C125.172 313.722 128.82 291.706 128.82 291.706C130.748 290.428 132.865 289.475 135.089 288.885C137.046 288.322 139.124 288.386 141.045 289.068C146.435 291.233 149.294 303.339 147.85 317.351C146.405 331.363 138.707 361.446 138.707 361.446L161.043 326.713C165.361 319.974 172.806 293.49 174.131 291.782C175.099 290.532 181.145 287.452 185.865 290.455C187.963 291.905 189.497 294.064 190.198 296.554C194.114 308.249 182.753 334.535 181.264 339.688C179.998 343.896 170.141 361.247 166.597 367.453L165.465 369.45C166.478 367.926 173.58 357.725 178.866 356.094C184.584 354.341 195.916 346.824 203.182 342.295C210.449 337.767 210.777 322.002 220.843 334.672C225.101 340.039 222.629 349.583 218.892 358.259C215.154 366.935 197.271 382.532 197.271 382.532C196.586 384.499 194.903 389.058 192.804 394.608C192.729 394.837 192.64 395.05 192.551 395.279C192.193 396.285 191.806 397.322 191.404 398.328C190.883 399.731 190.332 401.18 189.781 402.628C189.483 403.39 189.2 404.153 188.917 404.93C188.635 405.708 188.232 406.714 187.89 407.598C187.726 408.056 187.548 408.498 187.384 408.94C187.384 409.062 187.294 409.199 187.235 409.306C186.952 410.069 186.654 410.831 186.371 411.563L185.88 412.843C185.284 414.368 184.689 415.893 184.138 417.341C184.069 417.485 184.009 417.632 183.959 417.784C183.81 418.134 183.661 418.515 183.527 418.866C183.229 419.613 182.946 420.391 182.663 421.016C182.381 421.641 182.127 422.342 181.889 422.968C180.757 425.712 179.879 427.725 179.432 428.502C177.139 432.466 184.614 474.106 190.57 468.907C196.526 463.708 212.102 437.925 212.102 437.925C214.291 423.029 222.525 411.212 233.574 406.302C234.507 405.885 235.462 405.519 236.433 405.205C248.985 401.164 250.326 411.06 250.326 411.06C234.944 447.927 244.816 444.969 234.318 457.929Z" fill="white"/>
<path opacity="0.4" d="M138.751 361.491L117.458 394.806C119.26 382.608 129.832 356.536 129.832 356.536C131.321 346.549 144.172 299.954 139.868 292.62C138.494 291.118 136.877 289.87 135.088 288.93C137.045 288.368 139.124 288.432 141.045 289.113C146.435 291.279 149.294 303.385 147.849 317.397C146.405 331.409 138.751 361.491 138.751 361.491Z" fill="#E56262"/>
<path opacity="0.4" d="M117.011 320.553C117.116 320.691 117.384 321.057 117.771 321.636C117.628 320.971 117.449 320.314 117.235 319.669L117.011 320.553Z" fill="#E56262"/>
<path opacity="0.4" d="M93.8269 394.41C93.8269 394.41 109.164 367.682 115.582 344.476C117.964 335.892 119.111 327.78 117.83 321.712C117.687 321.047 117.508 320.39 117.294 319.745L117.026 320.568C115.999 318.974 114.767 317.528 113.363 316.269C114.554 320.233 115.21 327.521 109.492 337.432C100.543 352.953 98.8152 374.543 93.8269 394.41Z" fill="#E56262"/>
<path opacity="0.4" d="M191.508 475.891C199.951 468.892 206.801 449.01 215.72 438.901C215.72 438.901 215.437 420.849 233.589 406.517C222.495 411.426 214.305 423.288 212.117 438.139C212.117 438.139 196.526 463.922 190.585 469.121C184.644 474.32 177.184 432.681 179.447 428.716C179.894 427.939 180.772 425.926 181.904 423.166C182.157 422.557 182.41 421.901 182.693 421.23C182.976 420.559 183.244 419.812 183.542 419.08C183.691 418.73 183.825 418.348 183.974 417.998C184.024 417.847 184.084 417.699 184.152 417.556C184.703 416.122 185.284 414.613 185.895 413.058C186.058 412.631 186.222 412.204 186.401 411.777C186.669 411.03 186.967 410.252 187.264 409.52C187.264 409.398 187.264 409.276 187.398 409.139C187.562 408.712 187.741 408.27 187.905 407.813C188.247 406.928 188.575 406.044 188.932 405.144L189.796 402.842C190.347 401.394 190.898 399.945 191.419 398.542C191.806 397.49 192.193 396.454 192.58 395.493C192.655 395.264 192.744 395.036 192.819 394.822C192.014 396.423 177.139 425.865 171.495 432.116C165.852 438.368 170.974 482.554 182.589 478.864C182.574 478.833 185.224 481.09 191.508 475.891Z" fill="#E56262"/>
<path opacity="0.4" d="M57.4645 476.058C55.8415 493.257 56.9582 517.744 56.9582 517.744C56.9582 517.744 50.4362 528.782 48.1878 539.654C47.5773 542.581 43.8696 549.351 38.8068 557.676C40.1023 555.892 53.9653 536.787 55.8415 529.286C57.807 521.403 60.5766 519.863 67.4411 511.447C74.3056 503.03 80.5298 505.942 80.5298 505.942C80.5298 505.942 76.5392 530.658 86.6944 516.615C96.8497 502.573 102.97 484.475 105.382 416.518C105.382 416.518 100.915 423.883 96.4477 448.156C91.9805 472.429 84.4013 478.055 84.4013 478.055C80.0976 460.805 77.7641 443.102 77.4475 425.301C77.4475 425.301 71.8636 453.554 70.1512 466.666C68.4388 479.778 68.0367 450.321 67.1731 431.933C66.3392 414.689 67.7836 408.636 72.7719 397.932C69.1833 405.449 66.0563 412.691 65.1033 418.379C63.1229 429.936 59.0876 458.859 57.4645 476.058Z" fill="#E56262"/>
<path opacity="0.4" d="M144.454 558.3C142.492 560.4 140.392 562.361 138.171 564.17C129.519 571.352 109.417 609.652 97.0135 634.307C99.5002 623.497 103.967 608.28 111.472 594.756C124.903 570.559 138.156 564.186 144.454 558.3Z" fill="#E56262"/>
<path opacity="0.4" d="M181.278 339.78C180.013 343.988 170.155 361.339 166.611 367.545C162.144 372.851 149.919 398.862 146.926 402.613C143.933 406.364 138.2 406.684 140.747 400.921C144.901 391.513 157.498 359.296 164.006 353.045C170.513 346.794 180.519 320.355 185.582 305.489C188.128 297.973 187.354 293.292 185.939 290.349C188.037 291.799 189.571 293.958 190.272 296.448C194.144 308.341 182.842 334.565 181.278 339.78Z" fill="#E56262"/>
<path opacity="0.4" d="M203.167 342.432C195.931 347.007 184.644 354.432 178.911 356.155C179.685 356.002 189.885 354.066 193.563 360.47C197.375 367.163 197.256 382.654 197.256 382.654C197.256 382.654 215.124 367.056 218.877 358.381C222.629 349.705 225.086 340.161 220.827 334.778C210.761 322.139 210.449 337.919 203.167 342.432Z" fill="#E56262"/>
<path d="M86.5753 655.53C86.5753 655.53 125.29 574.919 138.186 564.17C151.081 553.421 150.917 547.398 157.886 539.683C164.854 531.968 205.416 519.862 210.419 507.39C215.422 494.918 223.82 470.919 234.333 457.944C244.846 444.969 234.944 447.927 250.34 411.273C250.34 411.273 248.97 401.377 236.433 405.418C223.895 409.458 214.439 421.991 212.102 438.153C212.102 438.153 196.511 463.921 190.555 469.12C184.599 474.319 177.154 432.679 179.432 428.715C181.71 424.751 194.933 389.225 197.301 382.715C197.301 382.715 215.169 367.102 218.907 358.442C222.644 349.781 225.131 340.145 220.872 334.839C210.806 322.138 210.449 337.889 203.212 342.463C195.975 347.037 184.629 354.508 178.896 356.261C173.163 358.015 165.301 369.785 165.301 369.785C165.301 369.785 179.715 344.933 181.278 339.779C182.842 334.626 194.129 308.34 190.213 296.645C186.297 284.951 175.486 290.089 174.161 291.797C172.836 293.504 165.39 319.973 161.057 326.712L138.722 361.491C138.722 361.491 146.42 331.439 147.864 317.412C149.309 303.384 146.375 291.278 141.059 289.098C135.744 286.918 128.805 291.751 128.805 291.751C128.805 291.751 125.216 313.752 123.25 318.494C121.285 323.236 117.994 341.517 112.827 350.361C112.827 350.361 120.049 324.913 117.056 320.537C114.063 316.161 111.1 313.676 108.405 315.262C105.71 316.848 101.064 331.82 96.3881 340.298C91.7125 348.775 88.6302 361.201 83.3441 374.969C78.058 388.737 67.0242 406.805 65.0437 418.423C63.0633 430.042 59.0876 458.92 57.4645 476.118C55.8415 493.317 56.9582 517.804 56.9582 517.804C56.9582 517.804 50.4362 528.843 48.1878 539.714C45.9393 550.585 1 614.424 1 614.424" stroke="#263238" stroke-linecap="round" stroke-linejoin="round"/>
<path d="M138.751 361.492C134.433 367.042 120.779 391.787 117.458 394.806C115.739 396.52 113.581 397.698 111.234 398.206" stroke="#263238" stroke-linecap="round" stroke-linejoin="round"/>
<path d="M112.782 350.361C112.782 350.361 111.859 355.911 104.25 372.515C96.6412 389.119 93.2611 396.056 90.6106 399.472" stroke="#263238" stroke-linecap="round" stroke-linejoin="round"/>
<path d="M165.301 369.786C158.928 379.361 152.376 395.706 149.011 400.173C145.646 404.641 143.576 405.235 143.576 405.235" stroke="#263238" stroke-linecap="round" stroke-linejoin="round"/>
<path d="M152.763 393.556C150.209 394.592 147.955 396.276 146.211 398.45" stroke="#263238" stroke-linecap="round" stroke-linejoin="round"/>
<path d="M190.615 469.12C190.615 469.12 184.897 482.599 176.618 479.061" stroke="#263238" stroke-linecap="round" stroke-linejoin="round"/>
<path d="M179.432 428.716C179.432 428.716 172.687 444.771 174.429 452.883" stroke="#263238" stroke-linecap="round" stroke-linejoin="round"/>
<path d="M110.787 409.398C110.787 409.398 104.042 411.365 105.025 423.121C106.007 434.876 101.138 479.535 101.138 479.535" stroke="#263238" stroke-linecap="round" stroke-linejoin="round"/>
<path d="M82.6293 413.454C77.6261 422.358 77.3432 422.602 78.0729 435.44C78.8025 448.278 77.3432 478.955 77.3432 478.955" stroke="#263238" stroke-linecap="round" stroke-linejoin="round"/>
<path d="M56.9582 517.743C56.9582 517.743 62.84 511.004 61.4254 503.716" stroke="#263238" stroke-linecap="round" stroke-linejoin="round"/>
<path d="M138.186 564.171C138.186 564.171 124.933 575.179 116.624 589.359" stroke="#263238" stroke-linecap="round" stroke-linejoin="round"/>
</svg>
