<svg width="42" height="42" viewBox="0 0 42 42" fill="none" xmlns="http://www.w3.org/2000/svg">
<mask id="mask0_1_56" style="mask-type:alpha" maskUnits="userSpaceOnUse" x="2" y="1" width="38" height="39">
<path d="M7.81313 10.4175C9.73093 10.4175 11.2856 8.86284 11.2856 6.94503C11.2856 5.02723 9.73093 3.47253 7.81313 3.47253C5.89532 3.47253 4.34063 5.02723 4.34063 6.94503C4.34063 8.86284 5.89532 10.4175 7.81313 10.4175Z" fill="white" stroke="white" stroke-width="4"/>
<path d="M4.34063 15.6263H11.2856V37.3295H4.34063V15.6263ZM18.2306 23.8735V37.3295H24.3075V25.1757C24.3075 23.0054 25.6097 21.2692 27.78 21.2692C29.9503 21.2692 31.2525 23.4395 31.2525 25.1757V37.3295H37.3294V23.8735C37.3294 21.2692 34.2909 15.6263 27.78 15.6263C21.2691 15.6263 18.2306 21.2692 18.2306 23.8735Z" fill="white" stroke="white" stroke-width="4" stroke-linejoin="round"/>
</mask>
<g mask="url(#mask0_1_56)">
<path d="M0 0H41.67V41.67H0V0Z" fill="#3F77CB"/>
</g>
</svg>
