<svg width="42" height="42" viewBox="0 0 42 42" fill="none" xmlns="http://www.w3.org/2000/svg">
<circle cx="20.835" cy="20.835" r="20.835" fill="#DE400E"/>
<path d="M21.4348 29.1945C20.6087 30.0288 19.6635 30.215 18.5991 29.7531C17.533 29.2929 17 28.47 17 27.2843V13.7157C17 12.53 17.533 11.7071 18.5991 11.2469C19.6635 10.785 20.6087 10.9712 21.4348 11.8055L28.2174 18.6557C28.4783 18.9192 28.6739 19.2046 28.8043 19.512C28.9348 19.8194 29 20.1487 29 20.5C29 20.8513 28.9348 21.1806 28.8043 21.488C28.6739 21.7954 28.4783 22.0808 28.2174 22.3443L21.4348 29.1945Z" fill="white"/>
</svg>
