<svg width="37" height="42" viewBox="0 0 37 42" fill="none" xmlns="http://www.w3.org/2000/svg">
<path d="M27.1148 0C33.4644 0 37 3.65889 37 9.92833V31.1622C37 37.5345 33.4644 41.1111 27.1148 41.1111H9.88722C3.63833 41.1111 0 37.5345 0 31.1622V9.92833C0 3.65889 3.63833 0 9.88722 0H27.1148ZM10.4422 28.2433C9.82556 28.1817 9.22944 28.4694 8.90056 29.0039C8.57167 29.5178 8.57167 30.1961 8.90056 30.7306C9.22944 31.2444 9.82556 31.5528 10.4422 31.4706H26.5578C27.3779 31.3883 27.9967 30.6874 27.9967 29.8672C27.9967 29.0244 27.3779 28.3256 26.5578 28.2433H10.4422ZM26.5578 18.8679H10.4422C9.55628 18.8679 8.83889 19.5894 8.83889 20.4733C8.83889 21.3572 9.55628 22.0767 10.4422 22.0767H26.5578C27.4417 22.0767 28.1611 21.3572 28.1611 20.4733C28.1611 19.5894 27.4417 18.8679 26.5578 18.8679ZM16.5863 9.55833H10.4422V9.57889C9.55628 9.57889 8.83889 10.2983 8.83889 11.1822C8.83889 12.0661 9.55628 12.7856 10.4422 12.7856H16.5863C17.4722 12.7856 18.1917 12.0661 18.1917 11.1596C18.1917 10.2778 17.4722 9.55833 16.5863 9.55833Z" fill="black"/>
</svg>
