<svg width="30" height="24" viewBox="0 0 30 24" fill="none" xmlns="http://www.w3.org/2000/svg">
<path d="M3 24C2.175 24 1.469 23.7065 0.882 23.1195C0.294 22.5315 0 21.825 0 21V3C0 2.175 0.294 1.469 0.882 0.882C1.469 0.294 2.175 0 3 0H27C27.825 0 28.5315 0.294 29.1195 0.882C29.7065 1.469 30 2.175 30 3V21C30 21.825 29.7065 22.5315 29.1195 23.1195C28.5315 23.7065 27.825 24 27 24H3ZM27 6L15.7875 13.0125C15.6625 13.0875 15.531 13.1435 15.393 13.1805C15.256 13.2185 15.125 13.2375 15 13.2375C14.875 13.2375 14.744 13.2185 14.607 13.1805C14.469 13.1435 14.3375 13.0875 14.2125 13.0125L3 6V21H27V6ZM15 10.5L27 3H3L15 10.5ZM3 6V6.375V4.1625V4.2V3V4.2V4.1805V6.375V6V21V6Z" fill="white"/>
</svg>
