<svg width="29" height="30" viewBox="0 0 29 30" fill="none" xmlns="http://www.w3.org/2000/svg">
<path d="M25.7778 14.5C25.7778 11.3583 24.6833 8.69302 22.4943 6.50406C20.3064 4.31617 17.6417 3.22222 14.5 3.22222V0C16.5139 0 18.4005 0.38237 20.1598 1.14711C21.9181 1.91293 23.4487 2.94726 24.7515 4.25011C26.0533 5.55189 27.0871 7.08244 27.8529 8.84178C28.6176 10.6 29 12.4861 29 14.5H25.7778ZM19.3333 14.5C19.3333 13.1574 18.8634 12.0162 17.9236 11.0764C16.9838 10.1366 15.8426 9.66667 14.5 9.66667V6.44444C16.7287 6.44444 18.6287 7.22959 20.2001 8.79989C21.7704 10.3713 22.5556 12.2713 22.5556 14.5H19.3333ZM27.3083 29.0806C23.8444 29.0806 20.4681 28.3083 17.1793 26.7638C13.8894 25.2203 10.976 23.1796 8.439 20.6416C5.90096 18.1046 3.86022 15.1912 2.31678 11.9013C0.77226 8.61246 0 5.23611 0 1.77222C0 1.28889 0.161111 0.886111 0.483333 0.563889C0.805556 0.241666 1.20833 0.0805555 1.69167 0.0805555H8.21667C8.59259 0.0805555 8.92824 0.201389 9.22361 0.443055C9.51898 0.684722 9.69352 0.993518 9.74722 1.36944L10.7944 7.00833C10.8481 7.38426 10.8417 7.72635 10.7751 8.03461C10.7074 8.34394 10.5528 8.61944 10.3111 8.86111L6.44444 12.8083C7.57222 14.7417 8.98195 16.5542 10.6736 18.2458C12.3653 19.9375 14.2315 21.4009 16.2722 22.6361L20.0583 18.85C20.3 18.6083 20.6158 18.4268 21.0057 18.3054C21.3945 18.1851 21.7769 18.1519 22.1528 18.2056L27.7111 19.3333C28.087 19.4139 28.3958 19.5949 28.6375 19.8763C28.8792 20.1588 29 20.488 29 20.8639V27.3889C29 27.8722 28.8389 28.275 28.5167 28.5972C28.1944 28.9194 27.7917 29.0806 27.3083 29.0806Z" fill="white"/>
</svg>
