<svg width="38" height="38" viewBox="0 0 38 38" fill="none" xmlns="http://www.w3.org/2000/svg">
<path d="M10.31 32.1249C11.8858 32.1249 13.1768 33.4434 13.1768 35.0722C13.1768 36.6815 11.8858 38 10.31 38C8.71524 38 7.42424 36.6815 7.42424 35.0722C7.42424 33.4434 8.71524 32.1249 10.31 32.1249ZM31.6684 32.1249C33.2441 32.1249 34.5351 33.4434 34.5351 35.0722C34.5351 36.6815 33.2441 38 31.6684 38C30.0736 38 28.7826 36.6815 28.7826 35.0722C28.7826 33.4434 30.0736 32.1249 31.6684 32.1249ZM1.47863 0.00022703L1.67211 0.0166028L6.20008 0.712692C6.84557 0.830969 7.32021 1.37194 7.37716 2.03119L7.73788 6.37448C7.79483 6.99688 8.28845 7.46224 8.89598 7.46224H34.5355C35.6936 7.46224 36.453 7.86942 37.2124 8.76134C37.9718 9.65327 38.1047 10.933 37.9338 12.0944L36.1303 24.8141C35.7885 27.2591 33.7381 29.0604 31.327 29.0604H10.6141C8.08911 29.0604 6.00073 27.0846 5.7919 24.5251L4.04526 3.38847L1.17849 2.88434C0.419084 2.74861 -0.112502 1.99241 0.0203942 1.21682C0.153291 0.423786 0.893714 -0.101674 1.67211 0.0166028L1.47863 0.00022703ZM28.2894 14.6345H23.0305C22.2331 14.6345 21.6066 15.2743 21.6066 16.0887C21.6066 16.8837 22.2331 17.5429 23.0305 17.5429H28.2894C29.0867 17.5429 29.7133 16.8837 29.7133 16.0887C29.7133 15.2743 29.0867 14.6345 28.2894 14.6345Z" fill="black"/>
</svg>
