<svg width="21" height="21" viewBox="0 0 21 21" fill="none" xmlns="http://www.w3.org/2000/svg">
<path d="M5.69763 17.7533C6.56845 17.7533 7.28189 18.4819 7.28189 19.382C7.28189 20.2714 6.56845 21 5.69763 21C4.81632 21 4.10287 20.2714 4.10287 19.382C4.10287 18.4819 4.81632 17.7533 5.69763 17.7533ZM17.5009 17.7533C18.3718 17.7533 19.0852 18.4819 19.0852 19.382C19.0852 20.2714 18.3718 21 17.5009 21C16.6196 21 15.9062 20.2714 15.9062 19.382C15.9062 18.4819 16.6196 17.7533 17.5009 17.7533ZM0.817137 0.000125464L0.924059 0.00917522L3.42636 0.393856C3.78308 0.45922 4.04538 0.758178 4.07685 1.1225L4.2762 3.52274C4.30767 3.8667 4.58046 4.12387 4.9162 4.12387H19.0854C19.7254 4.12387 20.1451 4.34889 20.5648 4.8418C20.9844 5.3347 21.0579 6.04191 20.9634 6.68376L19.9667 13.713C19.7779 15.0642 18.6447 16.0597 17.3123 16.0597H5.86571C4.47029 16.0597 3.31619 14.9678 3.20078 13.5534L2.23554 1.87257L0.651272 1.59397C0.231599 1.51897 -0.0621723 1.10107 0.0112705 0.672455C0.0847132 0.234197 0.493894 -0.0561884 0.924059 0.00917522L0.817137 0.000125464ZM15.6336 8.08747H12.7274C12.2867 8.08747 11.9405 8.44108 11.9405 8.89112C11.9405 9.33045 12.2867 9.69477 12.7274 9.69477H15.6336C16.0743 9.69477 16.4205 9.33045 16.4205 8.89112C16.4205 8.44108 16.0743 8.08747 15.6336 8.08747Z" fill="white"/>
</svg>
