<svg width="19" height="22" viewBox="0 0 19 22" fill="none" xmlns="http://www.w3.org/2000/svg">
<path d="M9.50522 0C12.3341 0 14.6597 2.2229 14.7778 5.03956H14.7502C14.7535 5.12144 14.7378 5.20297 14.7042 5.27778H14.869C16.1537 5.27778 17.4988 6.16815 18.0382 8.31757L18.0968 8.57119L18.9084 15.11C19.4925 19.2805 17.2108 21.0344 14.0982 21.1086L13.8895 21.1111H5.139C1.97576 21.1111 -0.461759 19.9584 0.0741853 15.3938L0.110733 15.11L0.931675 8.57119C1.33648 6.25647 2.69548 5.34348 4.0049 5.28122L4.15014 5.27778H4.23266C4.21874 5.19898 4.21874 5.11836 4.23266 5.03956C4.35071 2.2229 6.67638 0 9.50522 0ZM6.43572 8.79203C5.9205 8.79203 5.50283 9.22192 5.50283 9.75221C5.50283 10.2825 5.9205 10.7124 6.43572 10.7124C6.95094 10.7124 7.36861 10.2825 7.36861 9.75221L7.36134 9.63176C7.30377 9.15832 6.91131 8.79203 6.43572 8.79203ZM12.5461 8.79203C12.0309 8.79203 11.6133 9.22192 11.6133 9.75221C11.6133 10.2825 12.0309 10.7124 12.5461 10.7124C13.0614 10.7124 13.479 10.2825 13.479 9.75221C13.479 9.22192 13.0614 8.79203 12.5461 8.79203ZM9.46385 1.37474C7.43284 1.37474 5.78639 3.01554 5.78639 5.03956C5.8003 5.11836 5.8003 5.19898 5.78639 5.27778H13.1873C13.1579 5.20172 13.1423 5.12106 13.1413 5.03956C13.1413 3.01554 11.4949 1.37474 9.46385 1.37474Z" fill="black"/>
</svg>
