<svg width="8" height="15" viewBox="0 0 8 15" fill="none" xmlns="http://www.w3.org/2000/svg">
<path d="M0.277136 13.746C0.0923787 13.5612 0 13.3424 0 13.0897C0 12.8374 0.0923787 12.6189 0.277136 12.4342L5.69053 7.02078L0.25866 1.58891C0.0862201 1.41647 0 1.20092 0 0.942263C0 0.683603 0.0923787 0.461894 0.277136 0.277136C0.461894 0.0923788 0.680647 0 0.933395 0C1.18565 0 1.40416 0.0923788 1.58891 0.277136L7.79677 6.50346C7.87067 6.57737 7.92314 6.65743 7.95418 6.74365C7.98473 6.82987 8 6.92225 8 7.02078C8 7.11932 7.98473 7.2117 7.95418 7.29792C7.92314 7.38414 7.87067 7.4642 7.79677 7.53811L1.57044 13.7644C1.398 13.9369 1.18565 14.0231 0.933395 14.0231C0.680647 14.0231 0.461894 13.9307 0.277136 13.746Z" fill="black"/>
</svg>
