<svg width="33" height="37" viewBox="0 0 33 37" fill="none" xmlns="http://www.w3.org/2000/svg">
<path d="M16.5091 0C21.4223 0 25.4616 3.89593 25.6667 8.8325H25.6188C25.6245 8.976 25.5972 9.11889 25.5389 9.25H25.8252C28.0564 9.25 30.3927 10.8105 31.3295 14.5776L31.4313 15.0221L32.841 26.4823C33.8554 33.7916 29.8924 36.8655 24.4864 36.9957L24.1239 37H8.92564C3.43159 37 -0.802002 34.9798 0.128848 26.9796L0.192325 26.4823L1.61817 15.0221C2.32126 10.9653 4.68162 9.36516 6.95589 9.25604L7.20814 9.25H7.35146C7.32729 9.11189 7.32729 8.9706 7.35146 8.8325C7.55649 3.89593 11.5958 0 16.5091 0ZM11.1778 15.4092C10.283 15.4092 9.55755 16.1626 9.55755 17.092C9.55755 18.0214 10.283 18.7749 11.1778 18.7749C12.0727 18.7749 12.7981 18.0214 12.7981 17.092L12.7855 16.8809C12.6855 16.0512 12.0038 15.4092 11.1778 15.4092ZM21.7907 15.4092C20.8958 15.4092 20.1704 16.1626 20.1704 17.092C20.1704 18.0214 20.8958 18.7749 21.7907 18.7749C22.6855 18.7749 23.4109 18.0214 23.4109 17.092C23.4109 16.1626 22.6855 15.4092 21.7907 15.4092ZM16.4372 2.40941C12.9097 2.40941 10.05 5.28513 10.05 8.8325C10.0742 8.9706 10.0742 9.11189 10.05 9.25H22.9042C22.8532 9.1167 22.8262 8.97533 22.8244 8.8325C22.8244 5.28513 19.9647 2.40941 16.4372 2.40941Z" fill="black"/>
</svg>
