<svg width="40" height="38" viewBox="0 0 40 38" fill="none" xmlns="http://www.w3.org/2000/svg">
<path d="M14.8618 24.7998C22.9205 24.7998 29.7237 26.1258 29.7237 31.247C29.7237 36.3682 22.8769 37.65 14.8618 37.65C6.80317 37.65 0 36.322 0 31.2028C0 26.0816 6.84482 24.7998 14.8618 24.7998ZM33.6848 9.9079C34.6681 9.9079 35.4662 10.7192 35.4662 11.7143V14.0452H37.8502C38.8315 14.0452 39.6316 14.8565 39.6316 15.8516C39.6316 16.8467 38.8315 17.658 37.8502 17.658H35.4662V19.9909C35.4662 20.986 34.6681 21.7974 33.6848 21.7974C32.7035 21.7974 31.9034 20.986 31.9034 19.9909V17.658H29.5235C28.5402 17.658 27.7421 16.8467 27.7421 15.8516C27.7421 14.8565 28.5402 14.0452 29.5235 14.0452H31.9034V11.7143C31.9034 10.7192 32.7035 9.9079 33.6848 9.9079ZM14.8618 0C20.3202 0 24.6957 4.43206 24.6957 9.96108C24.6957 15.4901 20.3202 19.9222 14.8618 19.9222C9.40344 19.9222 5.028 15.4901 5.028 9.96108C5.028 4.43206 9.40344 0 14.8618 0Z" fill="black"/>
</svg>
