<svg width="23" height="22" viewBox="0 0 23 22" fill="none" xmlns="http://www.w3.org/2000/svg">
<path d="M8.625 14.3925C13.3018 14.3925 17.25 15.162 17.25 18.1341C17.25 21.1061 13.2765 21.85 8.625 21.85C3.94818 21.85 0 21.0793 0 18.1084C0 15.1364 3.97236 14.3925 8.625 14.3925ZM19.5488 5.75C20.1195 5.75 20.5826 6.22086 20.5826 6.79836V8.15104H21.9662C22.5357 8.15104 23 8.62191 23 9.1994C23 9.7769 22.5357 10.2478 21.9662 10.2478H20.5826V11.6016C20.5826 12.1791 20.1195 12.65 19.5488 12.65C18.9793 12.65 18.515 12.1791 18.515 11.6016V10.2478H17.1338C16.5632 10.2478 16.1 9.7769 16.1 9.1994C16.1 8.62191 16.5632 8.15104 17.1338 8.15104H18.515V6.79836C18.515 6.22086 18.9793 5.75 19.5488 5.75ZM8.625 0C11.7928 0 14.332 2.57212 14.332 5.78087C14.332 8.98961 11.7928 11.5617 8.625 11.5617C5.45724 11.5617 2.91797 8.98961 2.91797 5.78087C2.91797 2.57212 5.45724 0 8.625 0Z" fill="white"/>
</svg>
