<svg width="23" height="25" viewBox="0 0 23 25" fill="none" xmlns="http://www.w3.org/2000/svg">
<path d="M4.16667 25C3.40278 25 2.74907 24.7282 2.20556 24.1847C1.66111 23.6403 1.38889 22.9861 1.38889 22.2222V4.16667C0.99537 4.16667 0.665278 4.0338 0.398611 3.76806C0.132871 3.50139 0 3.1713 0 2.77778C0 2.38426 0.132871 2.05417 0.398611 1.7875C0.665278 1.52176 0.99537 1.38889 1.38889 1.38889H6.94444C6.94444 0.99537 7.07778 0.665278 7.34444 0.398611C7.61019 0.13287 7.93981 0 8.33333 0H13.8889C14.2824 0 14.6125 0.13287 14.8792 0.398611C15.1449 0.665278 15.2778 0.99537 15.2778 1.38889H20.8333C21.2269 1.38889 21.5565 1.52176 21.8222 1.7875C22.0889 2.05417 22.2222 2.38426 22.2222 2.77778C22.2222 3.1713 22.0889 3.50139 21.8222 3.76806C21.5565 4.0338 21.2269 4.16667 20.8333 4.16667V22.2222C20.8333 22.9861 20.5616 23.6403 20.0181 24.1847C19.4736 24.7282 18.8194 25 18.0556 25H4.16667ZM4.16667 4.16667V22.2222H18.0556V4.16667H4.16667ZM6.94444 18.0556C6.94444 18.4491 7.07778 18.7787 7.34444 19.0444C7.61019 19.3111 7.93981 19.4444 8.33333 19.4444C8.72685 19.4444 9.05694 19.3111 9.32361 19.0444C9.58935 18.7787 9.72222 18.4491 9.72222 18.0556V8.33333C9.72222 7.93981 9.58935 7.60972 9.32361 7.34306C9.05694 7.07731 8.72685 6.94444 8.33333 6.94444C7.93981 6.94444 7.61019 7.07731 7.34444 7.34306C7.07778 7.60972 6.94444 7.93981 6.94444 8.33333V18.0556ZM12.5 18.0556C12.5 18.4491 12.6333 18.7787 12.9 19.0444C13.1657 19.3111 13.4954 19.4444 13.8889 19.4444C14.2824 19.4444 14.6125 19.3111 14.8792 19.0444C15.1449 18.7787 15.2778 18.4491 15.2778 18.0556V8.33333C15.2778 7.93981 15.1449 7.60972 14.8792 7.34306C14.6125 7.07731 14.2824 6.94444 13.8889 6.94444C13.4954 6.94444 13.1657 7.07731 12.9 7.34306C12.6333 7.60972 12.5 7.93981 12.5 8.33333V18.0556Z" fill="#E34F4F"/>
</svg>
