<svg width="33" height="33" viewBox="0 0 33 33" fill="none" xmlns="http://www.w3.org/2000/svg">
<path d="M6.9255 3.6683C6.92504 4.6407 6.55977 5.57309 5.91006 6.26034C5.26034 6.94759 4.3794 7.33341 3.46102 7.33293C2.54264 7.33244 1.66206 6.94569 1.01299 6.25775C0.363925 5.56981 -0.000458756 4.63704 4.33469e-07 3.66463C0.000459623 2.69222 0.365724 1.75984 1.01544 1.07259C1.66516 0.385335 2.5461 -0.000485744 3.46448 4.58971e-07C4.38286 0.000486662 5.26344 0.38724 5.91251 1.07518C6.56157 1.76312 6.92596 2.69589 6.9255 3.6683ZM7.02938 10.0479H0.103883V33H7.02938V10.0479ZM17.9717 10.0479H11.0808V33H17.9024V20.9557C17.9024 14.246 26.1611 13.6227 26.1611 20.9557V33H33V18.4625C33 7.15144 20.7765 7.57308 17.9024 13.1278L17.9717 10.0479Z" fill="#3F77CB"/>
</svg>
