<svg width="25" height="28" viewBox="0 0 25 28" fill="none" xmlns="http://www.w3.org/2000/svg">
<path d="M4.66667 28C3.81111 28 3.07896 27.6956 2.47022 27.0869C1.86044 26.4771 1.55556 25.7444 1.55556 24.8889V4.66667C1.11481 4.66667 0.745111 4.51785 0.446445 4.22022C0.148815 3.92156 0 3.55185 0 3.11111C0 2.67037 0.148815 2.30067 0.446445 2.002C0.745111 1.70437 1.11481 1.55556 1.55556 1.55556H7.77778C7.77778 1.11481 7.92711 0.745111 8.22578 0.446444C8.52341 0.148815 8.89259 0 9.33333 0H15.5556C15.9963 0 16.366 0.148815 16.6647 0.446444C16.9623 0.745111 17.1111 1.11481 17.1111 1.55556H23.3333C23.7741 1.55556 24.1433 1.70437 24.4409 2.002C24.7396 2.30067 24.8889 2.67037 24.8889 3.11111C24.8889 3.55185 24.7396 3.92156 24.4409 4.22022C24.1433 4.51785 23.7741 4.66667 23.3333 4.66667V24.8889C23.3333 25.7444 23.029 26.4771 22.4202 27.0869C21.8104 27.6956 21.0778 28 20.2222 28H4.66667ZM4.66667 4.66667V24.8889H20.2222V4.66667H4.66667ZM7.77778 20.2222C7.77778 20.663 7.92711 21.0321 8.22578 21.3298C8.52341 21.6284 8.89259 21.7778 9.33333 21.7778C9.77407 21.7778 10.1438 21.6284 10.4424 21.3298C10.7401 21.0321 10.8889 20.663 10.8889 20.2222V9.33333C10.8889 8.89259 10.7401 8.52289 10.4424 8.22422C10.1438 7.92659 9.77407 7.77778 9.33333 7.77778C8.89259 7.77778 8.52341 7.92659 8.22578 8.22422C7.92711 8.52289 7.77778 8.89259 7.77778 9.33333V20.2222ZM14 20.2222C14 20.663 14.1493 21.0321 14.448 21.3298C14.7456 21.6284 15.1148 21.7778 15.5556 21.7778C15.9963 21.7778 16.366 21.6284 16.6647 21.3298C16.9623 21.0321 17.1111 20.663 17.1111 20.2222V9.33333C17.1111 8.89259 16.9623 8.52289 16.6647 8.22422C16.366 7.92659 15.9963 7.77778 15.5556 7.77778C15.1148 7.77778 14.7456 7.92659 14.448 8.22422C14.1493 8.52289 14 8.89259 14 9.33333V20.2222Z" fill="black" fill-opacity="0.5"/>
</svg>
