<svg width="25" height="26" viewBox="0 0 25 26" fill="none" xmlns="http://www.w3.org/2000/svg">
<path d="M18.3317 16.5218H17.1733L16.7627 16.1336C17.6791 15.0899 18.3488 13.8604 18.724 12.5333C19.0992 11.2061 19.1705 9.81407 18.9329 8.45675C18.2437 4.46018 14.8417 1.26867 10.7359 0.779883C9.29245 0.600851 7.82633 0.747927 6.44976 1.20986C5.07319 1.67179 3.82265 2.43633 2.79383 3.44498C1.765 4.45363 0.985173 5.67965 0.514004 7.02923C0.0428345 8.37881 -0.107183 9.81618 0.0754294 11.2313C0.573994 15.2567 3.82933 18.5919 7.90583 19.2676C9.2903 19.5006 10.7102 19.4306 12.0639 19.0628C13.4176 18.695 14.6716 18.0384 15.7362 17.1399L16.1321 17.5425V18.6782L22.3642 24.788C22.9654 25.3775 23.9479 25.3775 24.5491 24.788C25.1503 24.1986 25.1503 23.2354 24.5491 22.646L18.3317 16.5218ZM9.5335 16.5218C5.88224 16.5218 2.93484 13.6322 2.93484 10.0525C2.93484 6.47284 5.88224 3.58323 9.5335 3.58323C13.1847 3.58323 16.1321 6.47284 16.1321 10.0525C16.1321 13.6322 13.1847 16.5218 9.5335 16.5218Z" fill="black"/>
</svg>
