<svg width="25" height="26" viewBox="0 0 25 26" fill="none" xmlns="http://www.w3.org/2000/svg">
<path d="M18.3317 16.1321H17.1733L16.7627 15.7362C17.6791 14.6716 18.3488 13.4176 18.724 12.0639C19.0992 10.7102 19.1705 9.2903 18.9329 7.90583C18.2437 3.82933 14.8417 0.573994 10.7359 0.0754294C9.29245 -0.107183 7.82633 0.0428345 6.44976 0.514004C5.07319 0.985173 3.82265 1.765 2.79383 2.79383C1.765 3.82265 0.985173 5.07319 0.514004 6.44976C0.0428345 7.82633 -0.107183 9.29245 0.0754294 10.7359C0.573994 14.8417 3.82933 18.2437 7.90583 18.9329C9.2903 19.1705 10.7102 19.0992 12.0639 18.724C13.4176 18.3488 14.6716 17.6791 15.7362 16.7627L16.1321 17.1733V18.3317L22.3642 24.5638C22.9654 25.165 23.9479 25.165 24.5491 24.5638C25.1503 23.9625 25.1503 22.9801 24.5491 22.3789L18.3317 16.1321ZM9.5335 16.1321C5.88224 16.1321 2.93484 13.1847 2.93484 9.5335C2.93484 5.88224 5.88224 2.93484 9.5335 2.93484C13.1847 2.93484 16.1321 5.88224 16.1321 9.5335C16.1321 13.1847 13.1847 16.1321 9.5335 16.1321Z" fill="black"/>
</svg>
