<svg width="43" height="32" viewBox="0 0 43 32" fill="none" xmlns="http://www.w3.org/2000/svg">
<path d="M21.4004 20.6002C28.1068 20.6002 33.8331 21.6634 33.8331 25.918C33.8331 30.1708 28.1435 31.2727 21.4004 31.2727C14.694 31.2727 8.96763 30.2095 8.96763 25.9567C8.96763 21.7021 14.6572 20.6002 21.4004 20.6002ZM32.1231 18.0383C34.687 17.9907 37.4434 18.3428 38.462 18.5928C40.6199 19.017 42.0392 19.883 42.6272 21.1416C43.1243 22.1749 43.1243 23.3737 42.6272 24.4052C41.7277 26.3573 38.8278 26.984 37.7007 27.1459C37.4679 27.1811 37.2807 26.9787 37.3052 26.7446C37.8809 21.3353 33.3009 18.7705 32.1161 18.1808C32.0653 18.1544 32.0548 18.114 32.0601 18.0893C32.0636 18.0717 32.0846 18.0435 32.1231 18.0383ZM10.3954 18.0346L10.8782 18.039C10.9167 18.0442 10.936 18.0724 10.9395 18.0883C10.9447 18.1147 10.9342 18.1534 10.8852 18.1815C9.69865 18.7712 5.11862 21.336 5.69441 26.7435C5.71891 26.9794 5.5334 27.1801 5.30063 27.1466C4.17356 26.9847 1.27364 26.358 0.374085 24.4059C-0.124695 23.3726 -0.124695 22.1756 0.374085 21.1423C0.96212 19.8837 2.37971 19.0177 4.53759 18.5917C5.5579 18.3435 8.31256 17.9914 10.8782 18.039L10.3954 18.0346ZM21.4004 0C25.9664 0 29.6276 3.67898 29.6276 8.2733C29.6276 12.8659 25.9664 16.5484 21.4004 16.5484C16.8344 16.5484 13.1731 12.8659 13.1731 8.2733C13.1731 3.67898 16.8344 0 21.4004 0ZM32.5694 1.37971C36.9796 1.37971 40.4431 5.55332 39.2635 10.2022C38.4672 13.332 35.5848 15.4109 32.3734 15.3264C32.0513 15.3176 31.7346 15.2877 31.4283 15.2348C31.206 15.1961 31.094 14.9444 31.22 14.7578C32.4451 12.9447 33.1434 10.7637 33.1434 8.42257C33.1434 5.97931 32.3804 3.70151 31.0555 1.83386C31.0135 1.77577 30.982 1.68599 31.024 1.6191C31.059 1.56453 31.1238 1.53637 31.185 1.52229C31.6313 1.43075 32.0898 1.37971 32.5694 1.37971ZM10.4293 1.37953C10.9088 1.37953 11.3674 1.43058 11.8154 1.52211C11.8749 1.53619 11.9414 1.56612 11.9764 1.61893C12.0167 1.68582 11.9869 1.77559 11.9449 1.83368C10.6201 3.70133 9.85703 5.97913 9.85703 8.4224C9.85703 10.7636 10.5553 12.9445 11.7804 14.7576C11.9064 14.9442 11.7944 15.1959 11.5721 15.2347C11.2641 15.2892 10.9491 15.3174 10.6271 15.3262C7.41563 15.4107 4.53321 13.3318 3.73691 10.202C2.55559 5.55315 6.01905 1.37953 10.4293 1.37953Z" fill="black"/>
</svg>
