<svg width="33" height="33" viewBox="0 0 33 33" fill="none" xmlns="http://www.w3.org/2000/svg">
<circle cx="16.5" cy="16.5" r="16.5" fill="#DE400E"/>
<path d="M16.975 23.1202C16.3207 23.7809 15.5722 23.9284 14.7293 23.5625C13.885 23.1981 13.4629 22.5464 13.4629 21.6075V10.8619C13.4629 9.923 13.885 9.27131 14.7293 8.90686C15.5722 8.54103 16.3207 8.68847 16.975 9.3492L22.3464 14.7741C22.5529 14.9828 22.7079 15.2088 22.8112 15.4523C22.9145 15.6957 22.9661 15.9565 22.9661 16.2347C22.9661 16.5129 22.9145 16.7737 22.8112 17.0171C22.7079 17.2606 22.5529 17.4866 22.3464 17.6953L16.975 23.1202Z" fill="white"/>
</svg>
