<svg width="19" height="11" viewBox="0 0 19 11" fill="none" xmlns="http://www.w3.org/2000/svg">
<path d="M18.1616 0.488526C18.0071 0.333665 17.8235 0.210805 17.6214 0.126977C17.4193 0.0431491 17.2027 0 16.9839 0C16.7651 0 16.5485 0.0431491 16.3464 0.126977C16.1443 0.210805 15.9608 0.333665 15.8062 0.488526L9.32472 6.97003L2.84321 0.488526C2.53086 0.176181 2.10723 0.000707339 1.66551 0.000707339C1.22379 0.000707339 0.800158 0.176181 0.487812 0.488526C0.175468 0.80087 -1.90735e-06 1.2245 -1.90735e-06 1.66622C-1.90735e-06 2.10794 0.175468 2.53157 0.487812 2.84392L8.15537 10.5115C8.30991 10.6663 8.49348 10.7892 8.69557 10.873C8.89765 10.9569 9.11429 11 9.33307 11C9.55185 11 9.76848 10.9569 9.97057 10.873C10.1727 10.7892 10.3562 10.6663 10.5108 10.5115L18.1783 2.84392C18.8131 2.20913 18.8131 1.14002 18.1616 0.488526Z" fill="black"/>
</svg>
