<svg width="10" height="18" viewBox="0 0 10 18" fill="none" xmlns="http://www.w3.org/2000/svg">
<path d="M8.01843 17.1198L0.253456 9.37788C0.16129 9.28571 0.0961595 9.18587 0.0580643 9.07834C0.0193546 8.97081 0 8.85561 0 8.73272C0 8.60983 0.0193546 8.49462 0.0580643 8.3871C0.0961595 8.27957 0.16129 8.17972 0.253456 8.08756L8.01843 0.322581C8.23349 0.107527 8.50231 0 8.82489 0C9.14747 0 9.42396 0.115207 9.65438 0.345622C9.88479 0.576037 10 0.844854 10 1.15207C10 1.45929 9.88479 1.72811 9.65438 1.95853L2.88018 8.73272L9.65438 15.5069C9.86943 15.722 9.97696 15.9868 9.97696 16.3014C9.97696 16.6166 9.86175 16.8894 9.63134 17.1198C9.40092 17.3502 9.1321 17.4654 8.82489 17.4654C8.51767 17.4654 8.24885 17.3502 8.01843 17.1198Z" fill="black"/>
</svg>
