<svg width="34" height="36" viewBox="0 0 34 36" fill="none" xmlns="http://www.w3.org/2000/svg">
<path d="M11.873 33.792V28.2881C11.873 26.8831 13.0136 25.7441 14.4206 25.7441H19.5639C20.2395 25.7441 20.8875 26.0122 21.3653 26.4892C21.8431 26.9663 22.1115 27.6134 22.1115 28.2881V33.792C22.1072 34.3761 22.3366 34.9378 22.7487 35.3523C23.1608 35.7668 23.7216 36 24.3066 36H27.8155C29.4543 36.0042 31.0275 35.3571 32.1878 34.2014C33.3481 33.0458 34.0002 31.4765 34.0002 29.8401V14.1603C34.0002 12.8384 33.4134 11.5845 32.398 10.7364L20.4611 1.21656C18.3847 -0.452589 15.4096 -0.398696 13.3952 1.34456L1.73069 10.7364C0.667254 11.5595 0.0316535 12.8171 0.000244141 14.1603V29.8241C0.000244141 33.2349 2.76924 36 6.18498 36H9.61382C10.8288 36 11.8161 35.0212 11.8249 33.808L11.873 33.792Z" fill="black"/>
</svg>
