<svg width="19" height="20" viewBox="0 0 19 20" fill="none" xmlns="http://www.w3.org/2000/svg">
<path d="M6.63502 18.7733V15.7156C6.63502 14.9351 7.27242 14.3023 8.05868 14.3023H10.9329C11.3104 14.3023 11.6725 14.4512 11.9395 14.7163C12.2065 14.9813 12.3565 15.3408 12.3565 15.7156V18.7733C12.3541 19.0978 12.4823 19.4099 12.7126 19.6402C12.9429 19.8705 13.2563 20 13.5832 20H15.5441C16.4599 20.0023 17.339 19.6428 17.9874 19.0008C18.6358 18.3588 19.0002 17.487 19.0002 16.5778V7.86686C19.0002 7.13246 18.6723 6.43584 18.1049 5.96467L11.4343 0.675869C10.2739 -0.251438 8.61136 -0.221498 7.48564 0.746979L0.967256 5.96467C0.372985 6.42195 0.0177964 7.12064 0.000244141 7.86686V16.5689C0.000244141 18.4639 1.54763 20 3.45642 20H5.37253C6.05147 20 6.60324 19.4562 6.60816 18.7822L6.63502 18.7733Z" fill="white"/>
</svg>
