<svg width="19" height="22" viewBox="0 0 19 22" fill="none" xmlns="http://www.w3.org/2000/svg">
<path d="M9.50546 0C12.3343 0 14.66 2.2229 14.778 5.03956H14.7504C14.7538 5.12144 14.738 5.20297 14.7045 5.27778H14.8693C16.1539 5.27778 17.4991 6.16815 18.0385 8.31757L18.0971 8.57119L18.9087 15.11C19.4928 19.2805 17.211 21.0344 14.0985 21.1086L13.8897 21.1111H5.13925C1.97601 21.1111 -0.461515 19.9584 0.0744295 15.3938L0.110977 15.11L0.931919 8.57119C1.33673 6.25647 2.69572 5.34348 4.00515 5.28122L4.15039 5.27778H4.2329C4.21899 5.19898 4.21899 5.11836 4.2329 5.03956C4.35095 2.2229 6.67663 0 9.50546 0ZM6.43596 8.79203C5.92074 8.79203 5.50307 9.22192 5.50307 9.75221C5.50307 10.2825 5.92074 10.7124 6.43596 10.7124C6.95118 10.7124 7.36885 10.2825 7.36885 9.75221L7.36158 9.63176C7.30402 9.15832 6.91155 8.79203 6.43596 8.79203ZM12.5464 8.79203C12.0312 8.79203 11.6135 9.22192 11.6135 9.75221C11.6135 10.2825 12.0312 10.7124 12.5464 10.7124C13.0616 10.7124 13.4793 10.2825 13.4793 9.75221C13.4793 9.22192 13.0616 8.79203 12.5464 8.79203ZM9.46409 1.37474C7.43309 1.37474 5.78663 3.01554 5.78663 5.03956C5.80055 5.11836 5.80055 5.19898 5.78663 5.27778H13.1875C13.1581 5.20172 13.1426 5.12106 13.1416 5.03956C13.1416 3.01554 11.4951 1.37474 9.46409 1.37474Z" fill="black"/>
</svg>
