<svg width="21" height="21" viewBox="0 0 21 21" fill="none" xmlns="http://www.w3.org/2000/svg">
<path d="M5.69787 17.7533C6.56869 17.7533 7.28214 18.4819 7.28214 19.382C7.28214 20.2714 6.56869 21 5.69787 21C4.81656 21 4.10312 20.2714 4.10312 19.382C4.10312 18.4819 4.81656 17.7533 5.69787 17.7533ZM17.5012 17.7533C18.372 17.7533 19.0854 18.4819 19.0854 19.382C19.0854 20.2714 18.372 21 17.5012 21C16.6199 21 15.9064 20.2714 15.9064 19.382C15.9064 18.4819 16.6199 17.7533 17.5012 17.7533ZM0.817381 0.000125464L0.924303 0.00917522L3.4266 0.393856C3.78332 0.45922 4.04562 0.758178 4.0771 1.1225L4.27644 3.52274C4.30792 3.8667 4.5807 4.12387 4.91644 4.12387H19.0856C19.7257 4.12387 20.1453 4.34889 20.565 4.8418C20.9847 5.3347 21.0581 6.04191 20.9637 6.68376L19.967 13.713C19.7781 15.0642 18.645 16.0597 17.3125 16.0597H5.86595C4.47054 16.0597 3.31644 14.9678 3.20103 13.5534L2.23578 1.87257L0.651516 1.59397C0.231843 1.51897 -0.0619281 1.10107 0.0115146 0.672455C0.0849574 0.234197 0.494138 -0.0561884 0.924303 0.00917522L0.817381 0.000125464ZM15.6338 8.08747H12.7276C12.2869 8.08747 11.9407 8.44108 11.9407 8.89112C11.9407 9.33045 12.2869 9.69477 12.7276 9.69477H15.6338C16.0745 9.69477 16.4207 9.33045 16.4207 8.89112C16.4207 8.44108 16.0745 8.08747 15.6338 8.08747Z" fill="black"/>
</svg>
