<svg width="28" height="20" viewBox="0 0 28 20" fill="none" xmlns="http://www.w3.org/2000/svg">
<path d="M13.6865 13.1745C17.9755 13.1745 21.6377 13.8545 21.6377 16.5754C21.6377 19.2953 17.999 20 13.6865 20C9.39755 20 5.73535 19.32 5.73535 16.6002C5.73535 13.8793 9.37405 13.1745 13.6865 13.1745ZM20.5441 11.5361C22.1838 11.5057 23.9466 11.7309 24.598 11.8907C25.9781 12.162 26.8858 12.7159 27.2618 13.5208C27.5797 14.1816 27.5797 14.9483 27.2618 15.608C26.6865 16.8564 24.8319 17.2572 24.1111 17.3608C23.9623 17.3833 23.8425 17.2538 23.8582 17.1041C24.2264 13.6446 21.2973 12.0044 20.5396 11.6273C20.5071 11.6104 20.5004 11.5845 20.5038 11.5687C20.506 11.5575 20.5195 11.5395 20.5441 11.5361ZM6.64847 11.5338L6.95724 11.5365C6.98187 11.5399 6.99418 11.5579 6.99642 11.5681C6.99977 11.585 6.99306 11.6097 6.96172 11.6277C6.20287 12.0049 3.27378 13.6451 3.64201 17.1034C3.65768 17.2543 3.53904 17.3826 3.39018 17.3612C2.66938 17.2577 0.814781 16.8569 0.239485 15.6084C-0.0795027 14.9476 -0.0795027 14.1821 0.239485 13.5213C0.615554 12.7163 1.52215 12.1625 2.90219 11.89C3.55471 11.7313 5.31642 11.5062 6.95724 11.5365L6.64847 11.5338ZM13.6865 0C16.6067 0 18.9481 2.35284 18.9481 5.29107C18.9481 8.22817 16.6067 10.5833 13.6865 10.5833C10.7664 10.5833 8.42492 8.22817 8.42492 5.29107C8.42492 2.35284 10.7664 0 13.6865 0ZM20.8295 0.88237C23.65 0.88237 25.865 3.55154 25.1106 6.52467C24.6014 8.52627 22.758 9.85579 20.7041 9.80175C20.4982 9.79613 20.2956 9.77699 20.0997 9.74321C19.9576 9.71845 19.886 9.55746 19.9665 9.43813C20.75 8.2786 21.1966 6.88379 21.1966 5.38653C21.1966 3.82398 20.7086 2.36724 19.8613 1.17282C19.8345 1.13567 19.8143 1.07825 19.8412 1.03547C19.8636 1.00057 19.905 0.982562 19.9442 0.973556C20.2296 0.915017 20.5228 0.88237 20.8295 0.88237ZM6.67015 0.882257C6.97683 0.882257 7.27007 0.914904 7.5566 0.973443C7.59466 0.982449 7.63719 1.00159 7.65957 1.03536C7.68532 1.07814 7.66629 1.13555 7.63943 1.1727C6.79215 2.36713 6.30416 3.82386 6.30416 5.38642C6.30416 6.88368 6.75074 8.27849 7.53422 9.43802C7.61481 9.55735 7.54317 9.71834 7.40103 9.7431C7.20404 9.778 7.00257 9.79601 6.79663 9.80164C4.7428 9.85568 2.89939 8.52616 2.39013 6.52456C1.63463 3.55143 3.84964 0.882257 6.67015 0.882257Z" fill="black"/>
</svg>
