<svg width="23" height="22" viewBox="0 0 23 22" fill="none" xmlns="http://www.w3.org/2000/svg">
<path d="M8.62524 14.3925C13.3021 14.3925 17.2502 15.162 17.2502 18.1341C17.2502 21.1061 13.2767 21.85 8.62524 21.85C3.94843 21.85 0.000244141 21.0793 0.000244141 18.1084C0.000244141 15.1364 3.9726 14.3925 8.62524 14.3925ZM19.5491 5.75C20.1197 5.75 20.5829 6.22086 20.5829 6.79836V8.15104H21.9664C22.5359 8.15104 23.0002 8.62191 23.0002 9.1994C23.0002 9.7769 22.5359 10.2478 21.9664 10.2478H20.5829V11.6016C20.5829 12.1791 20.1197 12.65 19.5491 12.65C18.9796 12.65 18.5152 12.1791 18.5152 11.6016V10.2478H17.1341C16.5634 10.2478 16.1002 9.7769 16.1002 9.1994C16.1002 8.62191 16.5634 8.15104 17.1341 8.15104H18.5152V6.79836C18.5152 6.22086 18.9796 5.75 19.5491 5.75ZM8.62524 0C11.793 0 14.3323 2.57212 14.3323 5.78087C14.3323 8.98961 11.793 11.5617 8.62524 11.5617C5.45749 11.5617 2.91822 8.98961 2.91822 5.78087C2.91822 2.57212 5.45749 0 8.62524 0Z" fill="black"/>
</svg>
