<svg width="19" height="22" viewBox="0 0 19 22" fill="none" xmlns="http://www.w3.org/2000/svg">
<path d="M13.9241 0C17.1847 0 19.0002 1.87889 19.0002 5.09833V16.0022C19.0002 19.2744 17.1847 21.1111 13.9241 21.1111H5.07747C1.86858 21.1111 0.000244141 19.2744 0.000244141 16.0022V5.09833C0.000244141 1.87889 1.86858 0 5.07747 0H13.9241ZM5.36247 14.5033C5.0458 14.4717 4.73969 14.6194 4.5708 14.8939C4.40191 15.1578 4.40191 15.5061 4.5708 15.7806C4.73969 16.0444 5.0458 16.2028 5.36247 16.1606H13.638C14.0592 16.1183 14.3769 15.7584 14.3769 15.3372C14.3769 14.9044 14.0592 14.5456 13.638 14.5033H5.36247ZM13.638 9.68894H5.36247C4.90752 9.68894 4.53913 10.0594 4.53913 10.5133C4.53913 10.9672 4.90752 11.3367 5.36247 11.3367H13.638C14.0919 11.3367 14.4614 10.9672 14.4614 10.5133C14.4614 10.0594 14.0919 9.68894 13.638 9.68894ZM8.51752 4.90833H5.36247V4.91889C4.90752 4.91889 4.53913 5.28833 4.53913 5.74222C4.53913 6.19611 4.90752 6.56556 5.36247 6.56556H8.51752C8.97247 6.56556 9.34191 6.19611 9.34191 5.73061C9.34191 5.27778 8.97247 4.90833 8.51752 4.90833Z" fill="black"/>
</svg>
