<svg width="27" height="20" viewBox="0 0 27 20" fill="none" xmlns="http://www.w3.org/2000/svg">
<path d="M25.8814 10.8847L17.1328 19.6333C16.3517 20.4144 14.9978 19.8676 14.9978 18.748V13.7488H7.9156C7.223 13.7488 6.6658 13.1916 6.6658 12.499V7.49986C6.6658 6.80727 7.223 6.25007 7.9156 6.25007H14.9978V1.2509C14.9978 0.136502 16.3465 -0.41549 17.1328 0.36563L25.8814 9.11418C26.3657 9.60368 26.3657 10.3952 25.8814 10.8847ZM9.99858 19.3729V17.2899C9.99858 16.9462 9.71738 16.665 9.37369 16.665H4.99941C4.07769 16.665 3.33302 15.9203 3.33302 14.9986V5.00028C3.33302 4.07856 4.07769 3.33389 4.99941 3.33389H9.37369C9.71738 3.33389 9.99858 3.05268 9.99858 2.70899V0.626004C9.99858 0.282311 9.71738 0.00110755 9.37369 0.00110755H4.99941C2.23946 0.00110755 0.000244141 2.24032 0.000244141 5.00028V14.9986C0.000244141 17.7586 2.23946 19.9978 4.99941 19.9978H9.37369C9.71738 19.9978 9.99858 19.7166 9.99858 19.3729Z" fill="black"/>
</svg>
