<svg width="25" height="22" viewBox="0 0 25 22" fill="none" xmlns="http://www.w3.org/2000/svg">
<path d="M20 4.88889H5V0H20V4.88889ZM20 11.6111C20.3542 11.6111 20.6508 11.4938 20.89 11.2591C21.13 11.0253 21.25 10.7352 21.25 10.3889C21.25 10.0426 21.13 9.75211 20.89 9.51744C20.6508 9.28359 20.3542 9.16667 20 9.16667C19.6458 9.16667 19.3492 9.28359 19.11 9.51744C18.87 9.75211 18.75 10.0426 18.75 10.3889C18.75 10.7352 18.87 11.0253 19.11 11.2591C19.3492 11.4938 19.6458 11.6111 20 11.6111ZM17.5 19.5556V14.6667H7.5V19.5556H17.5ZM20 22H5V17.1111H0V9.77778C0 8.73889 0.364583 7.86826 1.09375 7.16589C1.82292 6.4627 2.70833 6.11111 3.75 6.11111H21.25C22.3125 6.11111 23.2033 6.4627 23.9225 7.16589C24.6408 7.86826 25 8.73889 25 9.77778V17.1111H20V22Z" fill="white"/>
</svg>
