<svg width="24" height="24" viewBox="0 0 24 24" fill="none" xmlns="http://www.w3.org/2000/svg">
<path d="M2.35294 21.6C1.70588 21.6 1.15176 21.3652 0.690588 20.8956C0.230196 20.4252 0 19.86 0 19.2V2.4C0 1.74 0.230196 1.1748 0.690588 0.7044C1.15176 0.2348 1.70588 0 2.35294 0H16.4706L21.1765 4.8V11.28L18.8235 13.68V5.79L15.5 2.4H2.35294V19.2H13.4118L11.0588 21.6H2.35294ZM10.5882 18C11.5686 18 12.402 17.65 13.0882 16.95C13.7745 16.25 14.1176 15.4 14.1176 14.4C14.1176 13.4 13.7745 12.55 13.0882 11.85C12.402 11.15 11.5686 10.8 10.5882 10.8C9.60784 10.8 8.77451 11.15 8.08824 11.85C7.40196 12.55 7.05882 13.4 7.05882 14.4C7.05882 15.4 7.40196 16.25 8.08824 16.95C8.77451 17.65 9.60784 18 10.5882 18ZM3.52941 8.4H14.1176V3.6H3.52941V8.4ZM14.1176 24V21.87L20 15.9L22.0588 18.03L16.2059 24H14.1176ZM22.8235 17.22L20.7353 15.12L21.7353 14.1C21.8529 13.98 21.9949 13.92 22.1612 13.92C22.3282 13.92 22.4706 13.98 22.5882 14.1L23.8235 15.36C23.9412 15.48 24 15.62 24 15.78C24 15.94 23.9412 16.08 23.8235 16.2L22.8235 17.22ZM2.35294 19.2V2.4V13.68V19.2Z" fill="white"/>
</svg>
